<svg xmlns="http://www.w3.org/2000/svg" width="345" height="217.332" viewBox="0 0 345 217.332">
  <g id="Grupo_729" data-name="Grupo 729" transform="translate(-840.833 -680.788)">
    <g id="Grupo_728" data-name="Grupo 728">
      <g id="Grupo_727" data-name="Grupo 727">
        <rect id="Rectángulo_78" data-name="Rectángulo 78" width="345" height="201" rx="10.314" transform="translate(840.833 697.121)" fill="#4a42e0"/>
        <g id="Grupo_700" data-name="Grupo 700">
          <text id="_03" data-name="03" transform="translate(962.032 818.788)" stroke="#f4f4f5" stroke-miterlimit="10" stroke-width="1" font-size="126.588" font-family="SegoeUI, Segoe UI" opacity="0.44" fill="none"><tspan x="0" y="0">03</tspan></text>
          <text id="Organismos_Empresariales" data-name="Organismos
Empresariales" transform="translate(877.283 821.091)" fill="#fff" font-size="31.811" font-family="SegoeUI, Segoe UI"><tspan x="0" y="0">Organismos</tspan><tspan x="0" y="38.173">Empresariales</tspan></text>
        </g>
      </g>
    </g>
    <g id="Grupo_718" data-name="Grupo 718">
      <g id="Grupo_701" data-name="Grupo 701">
        <path id="Trazado_569" data-name="Trazado 569" d="M937.247,726.812a.874.874,0,0,1-.859-.888v-6.216H904.893v6.216a.859.859,0,1,1-1.718,0v-7.1a.875.875,0,0,1,.859-.889h33.213a.875.875,0,0,1,.859.889v7.1A.874.874,0,0,1,937.247,726.812Z" fill="#fff"/>
      </g>
      <g id="Grupo_702" data-name="Grupo 702">
        <path id="Trazado_570" data-name="Trazado 570" d="M940.944,758.337a.873.873,0,0,1-.859-.888V726.812H926.939a.888.888,0,0,1,0-1.776h14a.874.874,0,0,1,.859.888v31.525A.874.874,0,0,1,940.944,758.337Z" fill="#fff"/>
      </g>
      <g id="Grupo_703" data-name="Grupo 703">
        <path id="Trazado_571" data-name="Trazado 571" d="M940.944,788.382H900.42a.888.888,0,0,1,0-1.776h39.665v-8.88a.859.859,0,1,1,1.718,0v9.768A.874.874,0,0,1,940.944,788.382Z" fill="#fff"/>
      </g>
      <g id="Grupo_704" data-name="Grupo 704">
        <path id="Trazado_572" data-name="Trazado 572" d="M900.42,773.878a.874.874,0,0,1-.859-.888V725.924a.874.874,0,0,1,.859-.888h13.635a.888.888,0,0,1,0,1.776H901.279V772.99A.874.874,0,0,1,900.42,773.878Z" fill="#fff"/>
      </g>
      <g id="Grupo_705" data-name="Grupo 705">
        <path id="Trazado_573" data-name="Trazado 573" d="M903.175,788.382H890.768a6.319,6.319,0,0,1-.459-12.6,7.72,7.72,0,0,1,13.126-.012,6.316,6.316,0,0,1-.26,12.61Zm-12.414-10.84a4.535,4.535,0,0,0,.007,9.064h12.407a4.535,4.535,0,0,0,0-9.064c-.061,0-.122,0-.183.005a.852.852,0,0,1-.781-.446,6.045,6.045,0,0,0-10.667,0,.856.856,0,0,1-.745.446h-.038Z" fill="#fff"/>
      </g>
      <g id="Grupo_706" data-name="Grupo 706">
        <path id="Trazado_574" data-name="Trazado 574" d="M946.934,780.291a9.672,9.672,0,0,1-9.5-9.817v-5.662a9.5,9.5,0,1,1,18.992,0v5.662A9.672,9.672,0,0,1,946.934,780.291Zm0-23.521a7.922,7.922,0,0,0-7.778,8.042v5.662a7.922,7.922,0,0,0,7.778,8.041h0a7.921,7.921,0,0,0,7.778-8.041v-5.662A7.922,7.922,0,0,0,946.934,756.77Z" fill="#fff"/>
      </g>
      <g id="Grupo_707" data-name="Grupo 707">
        <path id="Trazado_575" data-name="Trazado 575" d="M946.791,788.481a.874.874,0,0,1-.859-.888V765.787a.859.859,0,1,1,1.718,0v21.806A.874.874,0,0,1,946.791,788.481Z" fill="#fff"/>
      </g>
      <g id="Grupo_708" data-name="Grupo 708">
        <path id="Trazado_576" data-name="Trazado 576" d="M946.886,772a.841.841,0,0,1-.607-.26l-3.722-3.848a.909.909,0,0,1,0-1.256.838.838,0,0,1,1.214,0l3.722,3.848a.908.908,0,0,1,0,1.256A.841.841,0,0,1,946.886,772Z" fill="#fff"/>
      </g>
      <g id="Grupo_709" data-name="Grupo 709">
        <path id="Trazado_577" data-name="Trazado 577" d="M946.743,774.223a.841.841,0,0,1-.607-.26.909.909,0,0,1,0-1.256l3.388-3.5a.84.84,0,0,1,1.214,0,.909.909,0,0,1,0,1.256l-3.388,3.5A.841.841,0,0,1,946.743,774.223Z" fill="#fff"/>
      </g>
      <g id="Grupo_710" data-name="Grupo 710">
        <path id="Trazado_578" data-name="Trazado 578" d="M920.736,719.609a.874.874,0,0,1-.859-.888v-4.046a.859.859,0,1,1,1.718,0v4.046A.874.874,0,0,1,920.736,719.609Z" fill="#fff"/>
      </g>
      <g id="Grupo_711" data-name="Grupo 711">
        <path id="Trazado_579" data-name="Trazado 579" d="M931.9,734.706H909.379a.889.889,0,0,1,0-1.777H931.9a.889.889,0,0,1,0,1.777Z" fill="#fff"/>
      </g>
      <g id="Grupo_712" data-name="Grupo 712">
        <path id="Trazado_580" data-name="Trazado 580" d="M931.9,742.2H909.379a.888.888,0,0,1,0-1.776H931.9a.888.888,0,0,1,0,1.776Z" fill="#fff"/>
      </g>
      <g id="Grupo_713" data-name="Grupo 713">
        <path id="Trazado_581" data-name="Trazado 581" d="M931.9,749.9H909.379a.888.888,0,0,1,0-1.776H931.9a.888.888,0,0,1,0,1.776Z" fill="#fff"/>
      </g>
      <g id="Grupo_714" data-name="Grupo 714">
        <path id="Trazado_582" data-name="Trazado 582" d="M931.9,757.4H909.379a.888.888,0,0,1,0-1.776H931.9a.888.888,0,0,1,0,1.776Z" fill="#fff"/>
      </g>
      <g id="Grupo_715" data-name="Grupo 715">
        <path id="Trazado_583" data-name="Trazado 583" d="M931.9,764.9H909.379a.888.888,0,0,1,0-1.776H931.9a.888.888,0,0,1,0,1.776Z" fill="#fff"/>
      </g>
      <g id="Grupo_716" data-name="Grupo 716">
        <path id="Trazado_584" data-name="Trazado 584" d="M931.9,772.4H909.379a.888.888,0,0,1,0-1.776H931.9a.888.888,0,0,1,0,1.776Z" fill="#fff"/>
      </g>
      <g id="Grupo_717" data-name="Grupo 717">
        <path id="Trazado_585" data-name="Trazado 585" d="M926.463,780.489h-.015l-11.739-.2a.889.889,0,0,1,.028-1.776l11.739.2a.889.889,0,0,1-.013,1.776Z" fill="#fff"/>
      </g>
    </g>
  </g>
</svg>
