<svg xmlns="http://www.w3.org/2000/svg" width="345" height="217.332" viewBox="0 0 345 217.332">
  <g id="Grupo_724" data-name="Grupo 724" transform="translate(-98 -680.788)">
    <g id="Grupo_723" data-name="Grupo 723">
      <rect id="Rectángulo_76" data-name="Rectángulo 76" width="345" height="201" rx="10.314" transform="translate(98 697.121)" fill="#f6a80b"/>
      <text id="_01" data-name="01" transform="translate(219.198 818.788)" stroke="#f4f4f5" stroke-miterlimit="10" stroke-width="1" font-size="126.588" font-family="SegoeUI, Segoe UI" opacity="0.44" fill="none"><tspan x="0" y="0">01</tspan></text>
      <text id="Organismos_Gubernamentales" data-name="Organismos
Gubernamentales" transform="translate(134.449 821.091)" fill="#fff" font-size="31.811" font-family="SegoeUI, Segoe UI"><tspan x="0" y="0">Organismos</tspan><tspan x="0" y="38.173">Gubernamentales</tspan></text>
    </g>
    <g id="Grupo_695" data-name="Grupo 695">
      <g id="Grupo_694" data-name="Grupo 694">
        <path id="Trazado_538" data-name="Trazado 538" d="M164.416,742.042a1.422,1.422,0,0,0-1.422,1.422V746.4a1.422,1.422,0,0,0,2.844,0v-2.939A1.422,1.422,0,0,0,164.416,742.042Z" fill="#fff" stroke="#f6a80b" stroke-miterlimit="10" stroke-width="0.5"/>
        <path id="Trazado_539" data-name="Trazado 539" d="M170.1,742.042a1.422,1.422,0,0,0-1.422,1.422V746.4a1.422,1.422,0,0,0,2.844,0v-2.939A1.422,1.422,0,0,0,170.1,742.042Z" fill="#fff" stroke="#f6a80b" stroke-miterlimit="10" stroke-width="0.5"/>
        <path id="Trazado_540" data-name="Trazado 540" d="M175.792,742.042a1.422,1.422,0,0,0-1.422,1.422V746.4a1.422,1.422,0,0,0,2.844,0v-2.939A1.422,1.422,0,0,0,175.792,742.042Z" fill="#fff" stroke="#f6a80b" stroke-miterlimit="10" stroke-width="0.5"/>
        <path id="Trazado_541" data-name="Trazado 541" d="M181.479,742.042a1.422,1.422,0,0,0-1.422,1.422V746.4a1.422,1.422,0,0,0,2.844,0v-2.939A1.422,1.422,0,0,0,181.479,742.042Z" fill="#fff" stroke="#f6a80b" stroke-miterlimit="10" stroke-width="0.5"/>
        <path id="Trazado_542" data-name="Trazado 542" d="M187.167,742.042a1.422,1.422,0,0,0-1.422,1.422V746.4a1.422,1.422,0,0,0,2.844,0v-2.939A1.422,1.422,0,0,0,187.167,742.042Z" fill="#fff" stroke="#f6a80b" stroke-miterlimit="10" stroke-width="0.5"/>
        <path id="Trazado_543" data-name="Trazado 543" d="M155.885,779.391a1.424,1.424,0,1,0,1.005.417A1.438,1.438,0,0,0,155.885,779.391Z" fill="#fff" stroke="#f6a80b" stroke-miterlimit="10" stroke-width="0.5"/>
        <path id="Trazado_544" data-name="Trazado 544" d="M155.885,767.637a1.422,1.422,0,0,0-1.422,1.422v6.159a1.422,1.422,0,0,0,2.844,0v-6.159A1.422,1.422,0,0,0,155.885,767.637Z" fill="#fff" stroke="#f6a80b" stroke-miterlimit="10" stroke-width="0.5"/>
        <path id="Trazado_545" data-name="Trazado 545" d="M163.847,767.637a1.422,1.422,0,0,0-1.421,1.422v11.754a1.422,1.422,0,1,0,2.843,0V769.059A1.422,1.422,0,0,0,163.847,767.637Z" fill="#fff" stroke="#f6a80b" stroke-miterlimit="10" stroke-width="0.5"/>
        <path id="Trazado_546" data-name="Trazado 546" d="M171.81,767.637a1.422,1.422,0,0,0-1.422,1.422v11.754a1.422,1.422,0,0,0,2.844,0V769.059A1.422,1.422,0,0,0,171.81,767.637Z" fill="#fff" stroke="#f6a80b" stroke-miterlimit="10" stroke-width="0.5"/>
        <path id="Trazado_547" data-name="Trazado 547" d="M179.773,767.637a1.422,1.422,0,0,0-1.422,1.422v11.754a1.422,1.422,0,0,0,2.844,0V769.059A1.422,1.422,0,0,0,179.773,767.637Z" fill="#fff" stroke="#f6a80b" stroke-miterlimit="10" stroke-width="0.5"/>
        <path id="Trazado_548" data-name="Trazado 548" d="M187.736,767.637a1.422,1.422,0,0,0-1.422,1.422v11.754a1.422,1.422,0,0,0,2.844,0V769.059A1.422,1.422,0,0,0,187.736,767.637Z" fill="#fff" stroke="#f6a80b" stroke-miterlimit="10" stroke-width="0.5"/>
        <path id="Trazado_549" data-name="Trazado 549" d="M195.7,767.636a1.422,1.422,0,1,0,1.006.417A1.433,1.433,0,0,0,195.7,767.636Z" fill="#fff" stroke="#f6a80b" stroke-miterlimit="10" stroke-width="0.5"/>
        <path id="Trazado_550" data-name="Trazado 550" d="M195.7,773.325a1.421,1.421,0,0,0-1.421,1.422v6.066a1.422,1.422,0,1,0,2.843,0v-6.066A1.421,1.421,0,0,0,195.7,773.325Z" fill="#fff" stroke="#f6a80b" stroke-miterlimit="10" stroke-width="0.5"/>
        <path id="Trazado_551" data-name="Trazado 551" d="M161.572,753.915a1.422,1.422,0,0,0-1.422,1.422v2.939a1.422,1.422,0,0,0,2.844,0v-2.939A1.422,1.422,0,0,0,161.572,753.915Z" fill="#fff" stroke="#f6a80b" stroke-miterlimit="10" stroke-width="0.5"/>
        <path id="Trazado_552" data-name="Trazado 552" d="M167.26,753.915a1.422,1.422,0,0,0-1.422,1.422v2.939a1.422,1.422,0,0,0,2.844,0v-2.939A1.422,1.422,0,0,0,167.26,753.915Z" fill="#fff" stroke="#f6a80b" stroke-miterlimit="10" stroke-width="0.5"/>
        <path id="Trazado_553" data-name="Trazado 553" d="M172.948,753.915a1.422,1.422,0,0,0-1.422,1.422v2.939a1.422,1.422,0,0,0,2.844,0v-2.939A1.422,1.422,0,0,0,172.948,753.915Z" fill="#fff" stroke="#f6a80b" stroke-miterlimit="10" stroke-width="0.5"/>
        <path id="Trazado_554" data-name="Trazado 554" d="M178.635,753.915a1.422,1.422,0,0,0-1.421,1.422v2.939a1.422,1.422,0,1,0,2.843,0v-2.939A1.422,1.422,0,0,0,178.635,753.915Z" fill="#fff" stroke="#f6a80b" stroke-miterlimit="10" stroke-width="0.5"/>
        <path id="Trazado_555" data-name="Trazado 555" d="M184.323,753.915a1.422,1.422,0,0,0-1.422,1.422v2.939a1.422,1.422,0,0,0,2.844,0v-2.939A1.422,1.422,0,0,0,184.323,753.915Z" fill="#fff" stroke="#f6a80b" stroke-miterlimit="10" stroke-width="0.5"/>
        <path id="Trazado_556" data-name="Trazado 556" d="M190.011,753.915a1.422,1.422,0,0,0-1.422,1.422v2.939a1.422,1.422,0,0,0,2.844,0v-2.939A1.422,1.422,0,0,0,190.011,753.915Z" fill="#fff" stroke="#f6a80b" stroke-miterlimit="10" stroke-width="0.5"/>
        <path id="Trazado_557" data-name="Trazado 557" d="M210.771,765.694h-5.688v-3.129a1.422,1.422,0,0,0-1.422-1.422H197.12v-9.669h1a1.422,1.422,0,1,0,0-2.843h-3.982v-7.4a1.422,1.422,0,0,0-.142-2.836h-3.507V737.16a14.713,14.713,0,0,0-13.271-14.624v-5.993a1.422,1.422,0,1,0-2.844,0v5.993A14.714,14.714,0,0,0,161.1,737.16v1.233h-3.507a1.422,1.422,0,0,0-.142,2.836v7.4h-3.982a1.422,1.422,0,1,0,0,2.843h1v9.669h-6.541a1.422,1.422,0,0,0-1.422,1.422v3.129h-5.688a1.422,1.422,0,0,0-1.422,1.421v19.339a1.422,1.422,0,0,0,1.422,1.422h69.959a1.422,1.422,0,0,0,1.422-1.422V767.115A1.422,1.422,0,0,0,210.771,765.694ZM163.942,737.16a11.85,11.85,0,0,1,23.7,0v1.233h-23.7Zm-3.649,4.077h31v7.394h-31Zm-2.986,10.237h36.97v9.669h-36.97Zm-15.073,17.063H146.5v16.495h-4.266Zm7.11-1.422v-3.128h52.9v21.045h-52.9Zm60.005,17.917h-4.266V768.537h4.266Z" fill="#fff" stroke="#f6a80b" stroke-miterlimit="10" stroke-width="0.5"/>
      </g>
    </g>
  </g>
</svg>
