<svg xmlns="http://www.w3.org/2000/svg" width="345" height="217.332" viewBox="0 0 345 217.332">
  <g id="Grupo_726" data-name="Grupo 726" transform="translate(-467.5 -680.788)">
    <g id="Grupo_725" data-name="Grupo 725">
      <rect id="Rectángulo_77" data-name="Rectángulo 77" width="345" height="201" rx="10.314" transform="translate(467.5 697.121)" fill="#10dbdb"/>
      <g id="Grupo_697" data-name="Grupo 697">
        <text id="_02" data-name="02" transform="translate(588.698 818.788)" stroke="#f4f4f5" stroke-miterlimit="10" stroke-width="1" font-size="126.588" font-family="SegoeUI, Segoe UI" opacity="0.44" fill="none"><tspan x="0" y="0">02</tspan></text>
        <text id="Organismos_Educativos" data-name="Organismos
Educativos" transform="translate(503.949 821.091)" fill="#fff" font-size="31.811" font-family="SegoeUI, Segoe UI"><tspan x="0" y="0">Organismos</tspan><tspan x="0" y="38.173">Educativos</tspan></text>
      </g>
    </g>
    <g id="Grupo_698" data-name="Grupo 698">
      <path id="Trazado_558" data-name="Trazado 558" d="M581.392,784.631h-1.467v-44.3a1.467,1.467,0,1,0-2.934,0v1.467H561.44v-3.616l.654.436a1.467,1.467,0,0,0,1.627-2.441l-16.951-11.3v-3.616H554.1a1.467,1.467,0,0,0,1.467-1.467v-5.868a1.467,1.467,0,0,0-1.467-1.467h-8.8a1.467,1.467,0,0,0-1.467,1.467v10.951l-16.951,11.3a1.467,1.467,0,0,0,1.628,2.441l.653-.436v3.616h-15.55v-1.467a1.467,1.467,0,1,0-2.934,0v44.3h-1.467a1.467,1.467,0,1,0,0,2.934H538.7a1.467,1.467,0,0,0,0-2.934h-.734V777h14.67v7.629h-.733a1.467,1.467,0,1,0,0,2.934h29.487a1.467,1.467,0,0,0,0-2.934Zm-4.4-39.9v39.9H561.44v-39.9Zm-30.221-29.34h5.868v2.934H546.77Zm-33.154,29.34h15.55v39.9h-15.55Zm40.489,29.34H536.5a1.467,1.467,0,0,0-1.467,1.467v9.1H532.1V736.222l13.2-8.8,13.2,8.8v48.409h-2.934v-9.1A1.467,1.467,0,0,0,554.1,774.068Z" fill="#fff" stroke="#10dbdb" stroke-miterlimit="10" stroke-width="0.5"/>
      <path id="Trazado_559" data-name="Trazado 559" d="M546.77,786.1a1.467,1.467,0,1,1-1.467-1.467A1.467,1.467,0,0,1,546.77,786.1Z" fill="#fff" stroke="#10dbdb" stroke-miterlimit="10" stroke-width="0.5"/>
      <path id="Trazado_560" data-name="Trazado 560" d="M555.572,760.865A1.467,1.467,0,0,0,554.1,759.4h-5.868a1.467,1.467,0,0,0-1.467,1.467v8.8a1.467,1.467,0,0,0,1.467,1.467H554.1a1.466,1.466,0,0,0,1.467-1.467Zm-2.934,7.335H549.7v-5.868h2.934Z" fill="#fff" stroke="#10dbdb" stroke-miterlimit="10" stroke-width="0.5"/>
      <path id="Trazado_561" data-name="Trazado 561" d="M566.281,774.068h5.869a1.467,1.467,0,0,0,1.467-1.467v-8.8a1.467,1.467,0,0,0-1.467-1.467h-5.869a1.467,1.467,0,0,0-1.467,1.467v8.8A1.467,1.467,0,0,0,566.281,774.068Zm1.467-8.8h2.935v5.868h-2.935Z" fill="#fff" stroke="#10dbdb" stroke-miterlimit="10" stroke-width="0.5"/>
      <path id="Trazado_562" data-name="Trazado 562" d="M566.281,759.4h5.869a1.467,1.467,0,0,0,1.467-1.467v-8.8a1.467,1.467,0,0,0-1.467-1.467h-5.869a1.467,1.467,0,0,0-1.467,1.467v8.8A1.467,1.467,0,0,0,566.281,759.4Zm1.467-8.8h2.935v5.868h-2.935Z" fill="#fff" stroke="#10dbdb" stroke-miterlimit="10" stroke-width="0.5"/>
      <path id="Trazado_563" data-name="Trazado 563" d="M524.325,762.332h-5.868a1.467,1.467,0,0,0-1.467,1.467v8.8a1.467,1.467,0,0,0,1.467,1.467h5.868a1.467,1.467,0,0,0,1.467-1.467v-8.8A1.467,1.467,0,0,0,524.325,762.332Zm-1.467,8.8h-2.934v-5.868h2.934Z" fill="#fff" stroke="#10dbdb" stroke-miterlimit="10" stroke-width="0.5"/>
      <path id="Trazado_564" data-name="Trazado 564" d="M524.325,747.662h-5.868a1.467,1.467,0,0,0-1.467,1.467v8.8a1.467,1.467,0,0,0,1.467,1.467h5.868a1.467,1.467,0,0,0,1.467-1.467v-8.8A1.467,1.467,0,0,0,524.325,747.662Zm-1.467,8.8h-2.934V750.6h2.934Z" fill="#fff" stroke="#10dbdb" stroke-miterlimit="10" stroke-width="0.5"/>
      <path id="Trazado_565" data-name="Trazado 565" d="M542.369,759.4H536.5a1.467,1.467,0,0,0-1.467,1.467v8.8a1.467,1.467,0,0,0,1.467,1.467h5.868a1.466,1.466,0,0,0,1.467-1.467v-8.8A1.467,1.467,0,0,0,542.369,759.4Zm-1.467,8.8h-2.934v-5.868H540.9Z" fill="#fff" stroke="#10dbdb" stroke-miterlimit="10" stroke-width="0.5"/>
      <path id="Trazado_566" data-name="Trazado 566" d="M546.77,746.2V755a1.467,1.467,0,0,0,1.467,1.467H554.1A1.467,1.467,0,0,0,555.572,755v-8.8a1.467,1.467,0,0,0-1.467-1.467h-5.868A1.467,1.467,0,0,0,546.77,746.2Zm2.934,1.467h2.934v5.868H549.7Z" fill="#fff" stroke="#10dbdb" stroke-miterlimit="10" stroke-width="0.5"/>
      <path id="Trazado_567" data-name="Trazado 567" d="M542.369,744.728H536.5a1.467,1.467,0,0,0-1.467,1.467V755a1.467,1.467,0,0,0,1.467,1.467h5.868A1.467,1.467,0,0,0,543.836,755v-8.8A1.467,1.467,0,0,0,542.369,744.728Zm-1.467,8.8h-2.934v-5.868H540.9Z" fill="#fff" stroke="#10dbdb" stroke-miterlimit="10" stroke-width="0.5"/>
      <path id="Trazado_568" data-name="Trazado 568" d="M549.7,737.393a4.4,4.4,0,1,0-4.4,4.4A4.406,4.406,0,0,0,549.7,737.393Zm-4.4,1.467a1.467,1.467,0,1,1,1.467-1.467A1.469,1.469,0,0,1,545.3,738.86Z" fill="#fff" stroke="#10dbdb" stroke-miterlimit="10" stroke-width="0.5"/>
    </g>
  </g>
</svg>
