<svg xmlns="http://www.w3.org/2000/svg" width="1283.367" height="252.805" viewBox="0 0 1283.367 252.805">
  <g id="Grupo_730" data-name="Grupo 730" transform="translate(-2924.362 -65.829)">
    <rect id="Rectángulo_50" data-name="Rectángulo 50" width="1283.368" height="252.805" transform="translate(2924.362 65.829)" fill="#10dbdb"/>
    <path id="Trazado_587" data-name="Trazado 587" d="M128.765-91.272q0,22.723-4.1,40.271T112.8-21.4a53.408,53.408,0,0,1-19.062,18.3,52.186,52.186,0,0,1-25.69,6.249,48.731,48.731,0,0,1-24.3-6A50.932,50.932,0,0,1,25.753-20.325Q18.431-31.813,14.644-48.539a174.462,174.462,0,0,1-3.787-38.314q0-23.733,3.977-41.912t11.677-30.487A51.974,51.974,0,0,1,45.636-177.81q11.425-6.249,26.195-6.249Q128.765-184.059,128.765-91.272Zm-21.208,2.02q0-77.259-36.736-77.259-38.756,0-38.756,78.648,0,73.346,38,73.346Q107.557-14.518,107.557-89.252Zm113.758-44.31a37.431,37.431,0,0,0-2.588-14.518,28.758,28.758,0,0,0-7.069-10.289,28.966,28.966,0,0,0-10.541-6.123,41.278,41.278,0,0,0-13.129-2.02,43.427,43.427,0,0,0-11.867,1.641,57.689,57.689,0,0,0-11.3,4.545,69.5,69.5,0,0,0-10.6,6.943,76.6,76.6,0,0,0-9.531,8.963v-22.218a61.9,61.9,0,0,1,19.5-12.94q10.794-4.482,26.321-4.482a63.542,63.542,0,0,1,20.577,3.219,47.179,47.179,0,0,1,16.411,9.4,43.477,43.477,0,0,1,10.92,15.275,51.519,51.519,0,0,1,3.977,20.83,71.427,71.427,0,0,1-2.462,19.441,60.124,60.124,0,0,1-7.448,16.411,79.19,79.19,0,0,1-12.561,14.77,177.923,177.923,0,0,1-17.8,14.391q-12.75,9.089-21.019,15.528a92.916,92.916,0,0,0-13.129,12.056A34.985,34.985,0,0,0,161.161-31.5a39.274,39.274,0,0,0-1.957,12.94H249.34V0H137.617V-8.963a74.692,74.692,0,0,1,2.525-20.451,53.1,53.1,0,0,1,8.332-16.79A93.181,93.181,0,0,1,163.686-62.11q9.4-7.953,23.039-17.926A145.651,145.651,0,0,0,203.2-93.544a70.227,70.227,0,0,0,10.667-12.877,46.245,46.245,0,0,0,5.744-13.066A56.336,56.336,0,0,0,221.315-133.562Z" transform="translate(2967.732 297.436)" fill="none" stroke="#f4f4f5" stroke-width="1" opacity="0.44"/>
  </g>
</svg>
