<svg xmlns="http://www.w3.org/2000/svg" width="1092.109" height="523.246" viewBox="0 0 1092.109 523.246">
  <g id="Grupo_730" data-name="Grupo 730" transform="translate(-1257.234 -3260.578)">
    <rect id="Rectángulo_36" data-name="Rectángulo 36" width="1092.109" height="523.246" transform="translate(1257.234 3260.578)" fill="#f6a80b"/>
    <path id="Trazado_589" data-name="Trazado 589" d="M211.313-149.784q0,37.291-6.733,66.087T185.106-35.115q-12.741,19.785-31.283,30.04T111.665,5.179q-22.374,0-39.88-9.841T42.263-33.354q-12.016-18.852-18.231-46.3t-6.215-62.876q0-38.948,6.526-68.78t19.163-50.032q12.637-20.2,31.386-30.454t42.988-10.255Q211.313-302.054,211.313-149.784Zm-34.8,3.315q0-126.788-60.286-126.788-63.6,0-63.6,129.067,0,120.366,62.358,120.366Q176.509-23.825,176.509-146.469ZM353.25,0H319.274V-256.684a78.641,78.641,0,0,1-11.5,9.012,187.423,187.423,0,0,1-16.988,10.048q-9.426,4.972-19.888,9.323a144.538,144.538,0,0,1-20.406,6.837v-34.39a197.519,197.519,0,0,0,23.721-8.39q12.534-5.283,24.653-11.809t22.892-13.673a181.748,181.748,0,0,0,18.645-13.984H353.25Z" transform="translate(1308.393 3693.273)" fill="none" stroke="#f4f4f5" stroke-width="2" opacity="0.44"/>
  </g>
</svg>
