<svg xmlns="http://www.w3.org/2000/svg" width="1283.368" height="252.805" viewBox="0 0 1283.368 252.805">
  <g id="Grupo_730" data-name="Grupo 730" transform="translate(-4364.938 -65.829)">
    <rect id="Rectángulo_20" data-name="Rectángulo 20" width="1283.368" height="252.805" transform="translate(4364.938 65.829)" fill="#4a42e0"/>
    <path id="Trazado_588" data-name="Trazado 588" d="M128.765-91.272q0,22.723-4.1,40.271T112.8-21.4a53.408,53.408,0,0,1-19.062,18.3,52.186,52.186,0,0,1-25.69,6.249,48.731,48.731,0,0,1-24.3-6A50.932,50.932,0,0,1,25.753-20.325Q18.431-31.813,14.644-48.539a174.462,174.462,0,0,1-3.787-38.314q0-23.733,3.977-41.912t11.677-30.487A51.974,51.974,0,0,1,45.636-177.81q11.425-6.249,26.195-6.249Q128.765-184.059,128.765-91.272Zm-21.208,2.02q0-77.259-36.736-77.259-38.756,0-38.756,78.648,0,73.346,38,73.346Q107.557-14.518,107.557-89.252Zm136.607,38a52.773,52.773,0,0,1-4.608,22.281,49.2,49.2,0,0,1-13,17.169A60.014,60.014,0,0,1,206.418-.757a81.447,81.447,0,0,1-25.879,3.913q-25.879,0-41.154-9.847V-28.909A65.95,65.95,0,0,0,181.3-14.518a56.958,56.958,0,0,0,17.106-2.4,38.354,38.354,0,0,0,13.129-6.943,30.841,30.841,0,0,0,8.458-10.983,34.3,34.3,0,0,0,2.967-14.518q0-35.474-50.5-35.474H157.437v-17.547H171.7q44.689,0,44.689-33.327,0-30.8-34.085-30.8-19.189,0-35.979,12.877v-20.072q17.295-10.352,41.154-10.352A63.236,63.236,0,0,1,208.06-180.9a47.149,47.149,0,0,1,15.78,8.837A39.16,39.16,0,0,1,234-158.432a42.082,42.082,0,0,1,3.6,17.547q0,35.726-36.1,45.952v.5a57.111,57.111,0,0,1,17.042,4.482,45.477,45.477,0,0,1,13.508,9.026,40.237,40.237,0,0,1,8.9,13.066A41.715,41.715,0,0,1,244.164-51.254Z" transform="translate(4408.309 297.436)" fill="none" stroke="#f4f4f5" stroke-width="1" opacity="0.25"/>
  </g>
</svg>
