<svg xmlns="http://www.w3.org/2000/svg" width="1283.368" height="252.805" viewBox="0 0 1283.368 252.805">
  <g id="Grupo_730" data-name="Grupo 730" transform="translate(-1499.22 -65.829)">
    <rect id="Rectángulo_60" data-name="Rectángulo 60" width="1283.368" height="252.805" transform="translate(1499.22 65.829)" fill="#f6a80b"/>
    <path id="Trazado_586" data-name="Trazado 586" d="M128.765-91.272q0,22.723-4.1,40.271T112.8-21.4a53.408,53.408,0,0,1-19.062,18.3,52.186,52.186,0,0,1-25.69,6.249,48.731,48.731,0,0,1-24.3-6A50.932,50.932,0,0,1,25.753-20.325Q18.431-31.813,14.644-48.539a174.462,174.462,0,0,1-3.787-38.314q0-23.733,3.977-41.912t11.677-30.487A51.974,51.974,0,0,1,45.636-177.81q11.425-6.249,26.195-6.249Q128.765-184.059,128.765-91.272Zm-21.208,2.02q0-77.259-36.736-77.259-38.756,0-38.756,78.648,0,73.346,38,73.346Q107.557-14.518,107.557-89.252ZM215.255,0h-20.7V-156.412a47.92,47.92,0,0,1-7.006,5.491,114.2,114.2,0,0,1-10.352,6.123q-5.744,3.03-12.119,5.681a88.077,88.077,0,0,1-12.435,4.166v-20.956a120.356,120.356,0,0,0,14.455-5.113q7.638-3.219,15.023-7.2t13.95-8.332a110.745,110.745,0,0,0,11.362-8.521h7.827Z" transform="translate(1542.59 297.436)" fill="none" stroke="#f4f4f5" stroke-width="1" opacity="0.44"/>
  </g>
</svg>
