<svg xmlns="http://www.w3.org/2000/svg" width="1092.109" height="523.246" viewBox="0 0 1092.109 523.246">
  <g id="Grupo_730" data-name="Grupo 730" transform="translate(-2417.235 -3260.578)">
    <rect id="Rectángulo_17" data-name="Rectángulo 17" width="1092.109" height="523.246" transform="translate(2417.235 3260.578)" fill="#10dbdb"/>
    <path id="Trazado_590" data-name="Trazado 590" d="M211.313-149.784q0,37.291-6.733,66.087T185.106-35.115q-12.741,19.785-31.283,30.04T111.665,5.179q-22.374,0-39.88-9.841T42.263-33.354q-12.016-18.852-18.231-46.3t-6.215-62.876q0-38.948,6.526-68.78t19.163-50.032q12.637-20.2,31.386-30.454t42.988-10.255Q211.313-302.054,211.313-149.784Zm-34.8,3.315q0-126.788-60.286-126.788-63.6,0-63.6,129.067,0,120.366,62.358,120.366Q176.509-23.825,176.509-146.469Zm186.685-72.717q0-13.673-4.247-23.825a47.193,47.193,0,0,0-11.6-16.884,47.535,47.535,0,0,0-17.3-10.048,67.74,67.74,0,0,0-21.546-3.315,71.266,71.266,0,0,0-19.474,2.693,94.674,94.674,0,0,0-18.542,7.458,114.06,114.06,0,0,0-17.4,11.394A125.705,125.705,0,0,0,237.442-237v-36.462A101.58,101.58,0,0,1,269.45-294.7q17.713-7.355,43.195-7.355a104.278,104.278,0,0,1,33.769,5.283,77.423,77.423,0,0,1,26.932,15.434,71.349,71.349,0,0,1,17.92,25.068q6.526,14.916,6.526,34.183a117.217,117.217,0,0,1-4.04,31.9,98.666,98.666,0,0,1-12.223,26.932,129.957,129.957,0,0,1-20.613,24.239A292,292,0,0,1,331.7-115.394Q310.78-100.477,297.21-89.912a152.483,152.483,0,0,0-21.546,19.785,57.412,57.412,0,0,0-11.187,18.438,64.451,64.451,0,0,0-3.211,21.235H409.186V0H225.84V-14.709q0-19.06,4.143-33.562a87.149,87.149,0,0,1,13.673-27.554,152.916,152.916,0,0,1,24.964-26.1q15.434-13.052,37.809-29.418a239.024,239.024,0,0,0,27.036-22.167,115.246,115.246,0,0,0,17.506-21.131,75.892,75.892,0,0,0,9.426-21.442A92.452,92.452,0,0,0,363.194-219.186Z" transform="translate(2468.393 3693.273)" fill="none" stroke="#f4f4f5" stroke-width="2" opacity="0.44"/>
  </g>
</svg>
