<svg xmlns="http://www.w3.org/2000/svg" width="1092.109" height="523.246" viewBox="0 0 1092.109 523.246">
  <g id="Grupo_730" data-name="Grupo 730" transform="translate(-3617.235 -3260.578)">
    <rect id="Rectángulo_8" data-name="Rectángulo 8" width="1092.109" height="523.246" transform="translate(3617.235 3260.578)" fill="#4a42e0"/>
    <path id="Trazado_591" data-name="Trazado 591" d="M211.313-149.784q0,37.291-6.733,66.087T185.106-35.115q-12.741,19.785-31.283,30.04T111.665,5.179q-22.374,0-39.88-9.841T42.263-33.354q-12.016-18.852-18.231-46.3t-6.215-62.876q0-38.948,6.526-68.78t19.163-50.032q12.637-20.2,31.386-30.454t42.988-10.255Q211.313-302.054,211.313-149.784Zm-34.8,3.315q0-126.788-60.286-126.788-63.6,0-63.6,129.067,0,120.366,62.358,120.366Q176.509-23.825,176.509-146.469ZM400.692-84.111a86.6,86.6,0,0,1-7.562,36.566A80.734,80.734,0,0,1,371.792-19.37,98.487,98.487,0,0,1,338.748-1.243a133.661,133.661,0,0,1-42.47,6.422q-42.47,0-67.537-16.159V-47.442q30.04,23.617,68.78,23.617a93.472,93.472,0,0,0,28.072-3.936,62.942,62.942,0,0,0,21.546-11.394,50.612,50.612,0,0,0,13.88-18.024A56.289,56.289,0,0,0,365.887-81q0-58.215-82.868-58.215H258.366v-28.8h23.41q73.338,0,73.338-54.693,0-50.55-55.936-50.55-31.49,0-59.043,21.131v-32.94q28.382-16.988,67.537-16.988a103.775,103.775,0,0,1,33.769,5.179,77.375,77.375,0,0,1,25.9,14.5A64.265,64.265,0,0,1,384.015-260a69.059,69.059,0,0,1,5.9,28.8q0,58.629-59.251,75.41v.829a93.724,93.724,0,0,1,27.968,7.355A74.631,74.631,0,0,1,380.8-132.8a66.031,66.031,0,0,1,14.605,21.442A68.458,68.458,0,0,1,400.692-84.111Z" transform="translate(3668.393 3693.273)" fill="none" stroke="#f4f4f5" stroke-width="2" opacity="0.44"/>
  </g>
</svg>
