<svg xmlns="http://www.w3.org/2000/svg" height="34" width="44" viewBox="0 0 94.89 73.4"><defs><style>.cls-1{fill:#fff;}</style></defs><title>icono-camara</title><g id="Capa_2" data-name="Capa 2"><g id="Capa_1-2" data-name="Capa 1"><path class="cls-1" d="M-5409.35-929a7.53,7.53,0,0,0-7.53,7.53,7.54,7.54,0,0,0,7.53,7.53,7.53,7.53,0,0,0,7.53-7.53,7.53,7.53,0,0,0-7.53-7.53Zm0,12.28a4.75,4.75,0,0,1-4.75-4.75,4.75,4.75,0,0,1,4.75-4.75,4.75,4.75,0,0,1,4.75,4.75A4.75,4.75,0,0,1-5409.35-916.73Z" transform="translate(5466.01 962.79)"/><path class="cls-1" d="M-5409.35-941.3a19.84,19.84,0,0,0-19.81,19.82,19.84,19.84,0,0,0,19.81,19.81,19.84,19.84,0,0,0,19.82-19.81,19.84,19.84,0,0,0-19.82-19.82Zm0,36.85a17,17,0,0,1-17-17,17.06,17.06,0,0,1,17-17,17.06,17.06,0,0,1,17,17A17.05,17.05,0,0,1-5409.35-904.45Z" transform="translate(5466.01 962.79)"/><path class="cls-1" d="M-5378.64-947.44h-5.06a4.74,4.74,0,0,1-4.41-3l-3.05-7.63a7.49,7.49,0,0,0-7-4.74h-25.46a7.49,7.49,0,0,0-7,4.74l-3.06,7.63a4.72,4.72,0,0,1-4.41,3h-6.73v-3.26a2.88,2.88,0,0,0-2.88-2.88h-6.24a2.87,2.87,0,0,0-2.87,2.88v3.26h-1.68a7.54,7.54,0,0,0-7.54,7.53v43a7.54,7.54,0,0,0,7.54,7.53h28.52a1.39,1.39,0,0,0,1.39-1.39,1.39,1.39,0,0,0-1.39-1.39h-2.57v-3.27a2.88,2.88,0,0,0-2.87-2.87h-3.27v-34.06h5.76a25.75,25.75,0,0,0-2.4,10.89,26,26,0,0,0,25.95,26A26,26,0,0,0-5383.78-917h2.07a4.46,4.46,0,0,0,4.46-4.46,4.46,4.46,0,0,0-4.46-4.46h-2.07a25.75,25.75,0,0,0-2-6.43h11.9v8.8a1.39,1.39,0,0,0,1.39,1.39,1.39,1.39,0,0,0,1.39-1.39v-16.34a7.54,7.54,0,0,0-7.53-7.53ZM-5454-950.7a.09.09,0,0,1,.09-.1h6.24a.09.09,0,0,1,.1.1v3.26H-5454Zm-4.46,6h17v9.51h-21.79v-4.76A4.76,4.76,0,0,1-5458.47-944.66Zm23.17,49.22v3.27h-9.5v-3.27a.09.09,0,0,1,.09-.09h9.32A.09.09,0,0,1-5435.3-895.44Zm-6.14-2.87h-3.27a2.88,2.88,0,0,0-2.87,2.87v3.27h-10.89a4.76,4.76,0,0,1-4.76-4.75v-14h4.76a1.39,1.39,0,0,0,1.39-1.39,1.39,1.39,0,0,0-1.39-1.39h-4.76V-917h4.76a1.39,1.39,0,0,0,1.39-1.39,1.39,1.39,0,0,0-1.39-1.39h-4.76v-3.36h4.76a1.4,1.4,0,0,0,1.39-1.39,1.39,1.39,0,0,0-1.39-1.39h-4.76v-6.43h21.79Zm32.09,0a23.2,23.2,0,0,1-23.17-23.17,23.21,23.21,0,0,1,23.17-23.18,23.21,23.21,0,0,1,23.18,23.18A23.2,23.2,0,0,1-5409.35-898.31Zm27.64-24.85a1.68,1.68,0,0,1,1.68,1.68,1.69,1.69,0,0,1-1.68,1.68h-1.74q.06-.84.06-1.68t-.06-1.68Zm-5.59-12a26,26,0,0,0-22.05-12.29,26,26,0,0,0-22,12.29h-7.26v-9.51h.59a7.48,7.48,0,0,0,7-4.73L-5428-957a4.71,4.71,0,0,1,4.41-3h25.46a4.73,4.73,0,0,1,4.41,3l3.05,7.63a7.49,7.49,0,0,0,7,4.73h5.06a4.75,4.75,0,0,1,4.75,4.75v4.76Z" transform="translate(5466.01 962.79)"/><path class="cls-1" d="M-5372.5-919.4a1.39,1.39,0,0,0-1.39,1.39v21.09a4.75,4.75,0,0,1-4.75,4.75h-45.75a1.39,1.39,0,0,0-1.39,1.39,1.39,1.39,0,0,0,1.39,1.39h45.75a7.54,7.54,0,0,0,7.53-7.53V-918a1.39,1.39,0,0,0-1.39-1.39Z" transform="translate(5466.01 962.79)"/><path class="cls-1" d="M-5400.14-953.58h-21.49a1.39,1.39,0,0,0-1.39,1.39,1.39,1.39,0,0,0,1.39,1.39h21.49a1.39,1.39,0,0,0,1.39-1.39A1.39,1.39,0,0,0-5400.14-953.58Z" transform="translate(5466.01 962.79)"/><path class="cls-1" d="M-5378.64-895.53a1.39,1.39,0,0,0,1.39-1.39v-6.14a1.39,1.39,0,0,0-1.39-1.39h-6.14a1.39,1.39,0,0,0-1.39,1.39v6.14a1.39,1.39,0,0,0,1.39,1.39Zm-4.75-6.14h3.36v3.36h-3.36Z" transform="translate(5466.01 962.79)"/></g></g></svg>