<svg xmlns="http://www.w3.org/2000/svg" width="106.424" height="106.424" viewBox="0 0 106.424 106.424">
  <g id="Grupo_1030" data-name="Grupo 1030" transform="translate(-2154.209 -1842.587)">
    <circle id="Elipse_151" data-name="Elipse 151" cx="53.212" cy="53.212" r="53.212" transform="translate(2154.209 1842.587)" fill="#4a42e1"/>
    <g id="Grupo_803" data-name="Grupo 803">
      <g id="Grupo_800" data-name="Grupo 800">
        <g id="Grupo_799" data-name="Grupo 799">
          <path id="Trazado_697" data-name="Trazado 697" d="M2239.295,1887.751l-16.493-16.494a.9.9,0,0,0-.7-.281l-15.722.14a.9.9,0,0,0-.7.281l-27.513,27.513a.938.938,0,0,0,0,1.4l24.284,24.285a.938.938,0,0,0,1.4,0l35.444-35.445A.936.936,0,0,0,2239.295,1887.751Zm-36.146,34.742-22.881-22.881,26.531-26.53,14.88-.141,15.511,15.511-34.041,34.041Z" fill="#fff"/>
        </g>
      </g>
      <g id="Grupo_802" data-name="Grupo 802">
        <g id="Grupo_801" data-name="Grupo 801">
          <path id="Trazado_698" data-name="Trazado 698" d="M2221.889,1891.681l-10.6-10.6a4.28,4.28,0,0,0-6.6,0l-15.581,15.581a4.281,4.281,0,0,0,0,6.6l10.6,10.6a4.281,4.281,0,0,0,6.6,0l15.581-15.581A4.28,4.28,0,0,0,2221.889,1891.681Zm-29.478,12.072-1.895-1.9c-1.334-1.333-1.264-2.527,0-3.79l3.649-3.65,3.79,3.79-5.544,5.545Zm6.948-6.948-3.79-3.79,5.124-5.124,3.79,3.79Zm6.528-6.528-3.791-3.79,4-4c1.263-1.264,2.457-1.334,3.79,0l1.9,1.895-5.9,5.9Zm-8.282,18.67-3.791-3.79,5.545-5.545,3.79,3.79Zm6.948-6.949-3.79-3.79,5.124-5.123,3.79,3.79Zm6.527-6.527-3.79-3.79,5.9-5.9,3.79,3.79Zm-6.176,16.985c-1.263,1.264-2.457,1.334-3.79,0l-2.106-2.105,5.545-5.545,4,4Zm5.053-5.053-4-4,5.123-5.123,4,4Zm6.528-6.528-4-4,5.9-5.9,2.105,2.106c1.334,1.333,1.264,2.526,0,3.79Z" fill="#fff"/>
        </g>
      </g>
    </g>
  </g>
</svg>
