<svg xmlns="http://www.w3.org/2000/svg" width="66.391" height="64.482" viewBox="0 0 66.391 64.482">
  <g id="Grupo_615" data-name="Grupo 615" transform="translate(-2332.609 -723.987)">
    <g id="Grupo_610" data-name="Grupo 610">
      <g id="Grupo_609" data-name="Grupo 609">
        <path id="Trazado_475" data-name="Trazado 475" d="M2346.228,761.254a1.072,1.072,0,0,0-1.48.325,23.167,23.167,0,0,1-7.34,7.216l-4.289,2.639a1.071,1.071,0,0,0,1.123,1.824l4.289-2.639a25.325,25.325,0,0,0,8.022-7.886A1.071,1.071,0,0,0,2346.228,761.254Z" fill="#3c3c3b"/>
      </g>
    </g>
    <g id="Grupo_612" data-name="Grupo 612">
      <g id="Grupo_611" data-name="Grupo 611">
        <path id="Trazado_476" data-name="Trazado 476" d="M2398.239,766.591a4.846,4.846,0,0,0-6.419-1.631l-14.126,7.81a4.472,4.472,0,0,1-2.9.493l-13.881-2.351a1.863,1.863,0,0,1-1.538-2,1.855,1.855,0,0,1,2.145-1.663l12.1,1.966a4.211,4.211,0,0,0,.669.054,4.256,4.256,0,0,0,4.112-3.209,4.227,4.227,0,0,0-3.272-5.163l-19.194-3.848a13.35,13.35,0,0,0-2.366-.257,10.13,10.13,0,0,0-5.034,1.245,1.071,1.071,0,0,0,1.027,1.88,7.992,7.992,0,0,1,3.968-.983,11.217,11.217,0,0,1,1.984.216L2374.706,763a2.086,2.086,0,0,1,1.614,2.546,2.1,2.1,0,0,1-2.358,1.556l-12.1-1.966a4,4,0,0,0-1.309,7.886l13.881,2.352a6.63,6.63,0,0,0,4.294-.731l14.126-7.81a2.7,2.7,0,0,1,2.744,4.637l-18.256,11.537a7.957,7.957,0,0,1-5.44,1.141l-21.561-3.257a5.613,5.613,0,0,0-3.928.861l-7.22,4.749a1.071,1.071,0,1,0,1.177,1.789l7.22-4.748a3.475,3.475,0,0,1,2.431-.533l21.561,3.257a10.1,10.1,0,0,0,6.905-1.448l18.256-11.538a4.837,4.837,0,0,0,1.494-6.691Z" fill="#3c3c3b"/>
      </g>
    </g>
    <g id="Grupo_614" data-name="Grupo 614">
      <g id="Grupo_613" data-name="Grupo 613">
        <path id="Trazado_477" data-name="Trazado 477" d="M2388.595,739.521a1.07,1.07,0,0,0,1.071-1.071v-5.841a1.073,1.073,0,0,0-.535-.928l-13.078-7.55a1.07,1.07,0,0,0-1.072,0l-13.078,7.551a1.071,1.071,0,0,0-.536.927v15.1a1.073,1.073,0,0,0,.536.928l13.078,7.55a1.068,1.068,0,0,0,1.071,0l13.079-7.55a1.073,1.073,0,0,0,.535-.928v-4.976a1.071,1.071,0,0,0-2.142,0v4.358l-10.936,6.314V740.779l10.936-6.314v3.985A1.071,1.071,0,0,0,2388.595,739.521Zm-14.149,13.885-10.936-6.314V734.464l10.936,6.314Zm1.071-14.483-10.936-6.314,10.936-6.314,10.936,6.314Z" fill="#3c3c3b"/>
      </g>
    </g>
  </g>
</svg>
