<svg xmlns="http://www.w3.org/2000/svg" height="45" width="48" viewBox="0 0 27.88 45.49"><defs><style>.cls-1{fill:#fff;}</style></defs><title>icono-lentes</title><g id="Capa_2" data-name="Capa 2"><g id="Capa_1-2" data-name="Capa 1"><path class="cls-1" d="M-5476.93-6029.2l-1,1.55a1.46,1.46,0,0,1-1.22.65,1.47,1.47,0,0,1-1.12-.52l-2.13-2.56a3.65,3.65,0,0,0-2.82-1.32h-6.05a3.66,3.66,0,0,0-2.82,1.32l-2.13,2.56a1.47,1.47,0,0,1-1.12.52,1.46,1.46,0,0,1-1.22-.65l-1-1.55h-2.6v11.74h27.89v-11.74Zm1.13,10.28h-24.95v-8.81h.34l.6.9a3,3,0,0,0,2.44,1.3,2.92,2.92,0,0,0,2.25-1.05l2.13-2.56a2.2,2.2,0,0,1,1.69-.79h6.05a2.22,2.22,0,0,1,1.7.79l2.13,2.56a2.89,2.89,0,0,0,2.24,1.05,2.92,2.92,0,0,0,2.44-1.3l.6-.9h.34Z" transform="translate(5502.22 6031.4)"/><path class="cls-1" d="M-5477.27-6013h-1.47V-6016h-1.46v2.94h-1.47V-6016h-1.47v2.94h-1.47V-6016h-1.46v2.94h-1.47V-6016H-5489v2.94h-1.47V-6016h-1.46v2.94h-1.47V-6016h-1.47v2.94h-1.47V-6016h-1.46v2.94h-1.47V-6016h-1.47v17.78l1.47,2.94v5h22v-5l1.47-2.94V-6016h-1.47Zm-1.47,21.27h-19.07v-2.93h19.07Zm.28-4.4h-19.63l-.74-1.47h21.11Zm1.19-2.93h-22v-12.48h22Z" transform="translate(5502.22 6031.4)"/><polygon class="cls-1" points="21.28 44.02 6.6 44.02 6.6 42.56 5.14 42.56 5.14 45.49 22.75 45.49 22.75 42.56 21.28 42.56 21.28 44.02"/><path class="cls-1" d="M-5480.2-6006.45h-16.15v5.87h16.15Zm-1.47,4.4h-13.21V-6005h8.81v1.46h1.46V-6005h2.94Z" transform="translate(5502.22 6031.4)"/></g></g></svg>