<svg xmlns="http://www.w3.org/2000/svg" viewBox="0 0 60.38 58.4"><defs><style>.cls-1{fill:#3c3c3b;}</style></defs><title>icono-cartera</title><g id="Capa_2" data-name="Capa 2"><g id="Capa_1-2" data-name="Capa 1"><path class="cls-1" d="M5.82,19.6l-1.65-1A3.62,3.62,0,0,1,5.4,17.38L33.93.5a3.45,3.45,0,0,1,4.74,1.23l0,.07,9.47,16.8-1.68.95L37,2.75a1.58,1.58,0,0,0-1-.76,1.55,1.55,0,0,0-1.17.17L6.38,19A1.61,1.61,0,0,0,5.82,19.6Z"/><polygon class="cls-1" points="16.61 18.25 39.29 4.82 40.27 6.47 19.61 18.7 16.61 18.25"/><polygon class="cls-1" points="26.66 18.29 41.82 9.32 42.8 10.97 29.47 18.86 26.66 18.29"/><path class="cls-1" d="M15.64,12.28a.94.94,0,0,1-.61-.22,1,1,0,0,1-.13-1.35l7.74-9.43A3.46,3.46,0,0,1,27.5.77l.09.07,2.87,2.47a1,1,0,0,1,.11,1.35,1,1,0,0,1-1.36.11L26.34,2.3l-.05,0a1.58,1.58,0,0,0-1.13-.33,1.55,1.55,0,0,0-1,.57l-7.75,9.43A1,1,0,0,1,15.64,12.28Z"/><path class="cls-1" d="M58.53,45.28H41.07a2.76,2.76,0,0,1-2.76-2.75V34a2.76,2.76,0,0,1,2.76-2.75H58.53a1.85,1.85,0,0,1,1.85,1.86V43.42A1.85,1.85,0,0,1,58.53,45.28ZM41.07,33.19a.83.83,0,0,0-.83.83v8.51a.83.83,0,0,0,.83.83H58.46V33.19Zm17.46,0Z"/><path class="cls-1" d="M46.33,41.76a3.48,3.48,0,1,1,3.48-3.48A3.48,3.48,0,0,1,46.33,41.76Zm0-5a1.56,1.56,0,1,0,1.56,1.56A1.56,1.56,0,0,0,46.33,36.72Z"/><path class="cls-1" d="M4.81,58.4A4.84,4.84,0,0,1,0,53.57V16.22a1,1,0,0,1,1.92,0V53.57a2.9,2.9,0,0,0,2.89,2.9H53.57a2.9,2.9,0,0,0,2.89-2.9v-9a1,1,0,1,1,1.92,0v9a4.83,4.83,0,0,1-4.81,4.83Z"/><path class="cls-1" d="M57.42,33.21a1,1,0,0,1-1-1V22.4a2.85,2.85,0,0,0-2.85-2.82H4.78a4.73,4.73,0,0,1-3.35-8.12A4.81,4.81,0,0,1,4.82,10.1H18A1,1,0,1,1,18,12H4.81a2.87,2.87,0,0,0-2,.82,2.8,2.8,0,0,0-.86,2,2.85,2.85,0,0,0,2.86,2.82H53.62a4.77,4.77,0,0,1,4.76,4.73v9.86A1,1,0,0,1,57.42,33.21Z"/><path class="cls-1" d="M52.29,19.58a1,1,0,0,1-1-1V14.84A2.85,2.85,0,0,0,48.47,12H42.83a1,1,0,1,1,0-1.92h5.65a4.79,4.79,0,0,1,4.77,4.73v3.79A1,1,0,0,1,52.29,19.58Z"/><path class="cls-1" d="M55.4,41.26a1,1,0,0,1-1-1v-4a1,1,0,0,1,1.92,0v4A1,1,0,0,1,55.4,41.26Z"/></g></g></svg>