<svg xmlns="http://www.w3.org/2000/svg" width="95.059" height="67.05" viewBox="0 0 95.059 67.05">
  <g id="Grupo_238" data-name="Grupo 238" transform="translate(-3014.079 -5278.514)">
    <g id="Grupo_233" data-name="Grupo 233">
      <g id="Grupo_232" data-name="Grupo 232">
        <path id="Trazado_259" data-name="Trazado 259" d="M3025.4,5287.992a7.524,7.524,0,0,1,.163-1.557h-9.5a1.98,1.98,0,1,0,0,3.961h9.732A7.5,7.5,0,0,1,3025.4,5287.992Z" fill="#1d1d1b"/>
        <path id="Trazado_260" data-name="Trazado 260" d="M3107.157,5286.435h-66.93a7.506,7.506,0,0,1-.233,3.961h67.163a1.98,1.98,0,1,0,0-3.961Z" fill="#1d1d1b"/>
      </g>
      <path id="Trazado_261" data-name="Trazado 261" d="M3032.893,5297.469a9.478,9.478,0,1,1,9.478-9.477A9.488,9.488,0,0,1,3032.893,5297.469Zm0-14.994a5.516,5.516,0,1,0,5.517,5.517A5.524,5.524,0,0,0,3032.893,5282.475Z" fill="#1d1d1b"/>
    </g>
    <g id="Grupo_235" data-name="Grupo 235">
      <g id="Grupo_234" data-name="Grupo 234">
        <path id="Trazado_262" data-name="Trazado 262" d="M3083.11,5311.756a7.53,7.53,0,0,1,.163-1.556H3016.06a1.98,1.98,0,1,0,0,3.961h67.446A7.5,7.5,0,0,1,3083.11,5311.756Z" fill="#1d1d1b"/>
        <path id="Trazado_263" data-name="Trazado 263" d="M3107.157,5310.2h-9.216a7.5,7.5,0,0,1-.233,3.961h9.449a1.98,1.98,0,1,0,0-3.961Z" fill="#1d1d1b"/>
      </g>
      <path id="Trazado_264" data-name="Trazado 264" d="M3090.607,5321.234a9.478,9.478,0,1,1,9.478-9.478A9.489,9.489,0,0,1,3090.607,5321.234Zm0-14.994a5.516,5.516,0,1,0,5.517,5.516A5.522,5.522,0,0,0,3090.607,5306.24Z" fill="#1d1d1b"/>
    </g>
    <g id="Grupo_237" data-name="Grupo 237">
      <g id="Grupo_236" data-name="Grupo 236">
        <path id="Trazado_265" data-name="Trazado 265" d="M3107.157,5334.531h-38.073a7.5,7.5,0,0,1-.233,3.96h38.306a1.98,1.98,0,1,0,0-3.96Z" fill="#1d1d1b"/>
        <path id="Trazado_266" data-name="Trazado 266" d="M3054.253,5336.087a7.532,7.532,0,0,1,.163-1.556H3016.06a1.98,1.98,0,1,0,0,3.96h38.589A7.5,7.5,0,0,1,3054.253,5336.087Z" fill="#1d1d1b"/>
      </g>
      <path id="Trazado_267" data-name="Trazado 267" d="M3061.75,5345.564a9.478,9.478,0,1,1,9.478-9.477A9.488,9.488,0,0,1,3061.75,5345.564Zm0-14.994a5.517,5.517,0,1,0,5.517,5.517A5.524,5.524,0,0,0,3061.75,5330.57Z" fill="#1d1d1b"/>
    </g>
  </g>
</svg>
