<svg xmlns="http://www.w3.org/2000/svg" width="59.049" height="70.451" viewBox="0 0 59.049 70.451">
  <g id="Grupo_607" data-name="Grupo 607" transform="translate(-2033.727 -721.54)">
    <g id="Grupo_580" data-name="Grupo 580">
      <g id="Grupo_579" data-name="Grupo 579">
        <path id="Trazado_461" data-name="Trazado 461" d="M2039.864,731.676a1.042,1.042,0,0,0-1.042,1.041v2.761a1.042,1.042,0,0,0,2.084,0v-2.761A1.042,1.042,0,0,0,2039.864,731.676Z" fill="#3c3c3b"/>
      </g>
    </g>
    <g id="Grupo_582" data-name="Grupo 582">
      <g id="Grupo_581" data-name="Grupo 581">
        <path id="Trazado_462" data-name="Trazado 462" d="M2039.864,739.107a1.043,1.043,0,0,0-1.042,1.042v2.76a1.042,1.042,0,0,0,2.084,0v-2.76A1.043,1.043,0,0,0,2039.864,739.107Z" fill="#3c3c3b"/>
      </g>
    </g>
    <g id="Grupo_584" data-name="Grupo 584">
      <g id="Grupo_583" data-name="Grupo 583">
        <path id="Trazado_463" data-name="Trazado 463" d="M2044.96,736.772h-2.76a1.042,1.042,0,1,0,0,2.083h2.76a1.042,1.042,0,0,0,0-2.083Z" fill="#3c3c3b"/>
      </g>
    </g>
    <g id="Grupo_586" data-name="Grupo 586">
      <g id="Grupo_585" data-name="Grupo 585">
        <path id="Trazado_464" data-name="Trazado 464" d="M2037.529,736.772h-2.761a1.042,1.042,0,0,0,0,2.083h2.761a1.042,1.042,0,0,0,0-2.083Z" fill="#3c3c3b"/>
      </g>
    </g>
    <g id="Grupo_588" data-name="Grupo 588">
      <g id="Grupo_587" data-name="Grupo 587">
        <path id="Trazado_465" data-name="Trazado 465" d="M2092.483,761.715l-7.081-7.341h0v0l0,0a1.031,1.031,0,0,0-.4-.255l-6.121-2.184a1.042,1.042,0,0,0-.7,1.962l3.37,1.2-17.264,6.158-17.265-6.158,3.468-1.236a1.042,1.042,0,1,0-.7-1.962l-6.219,2.218a1.048,1.048,0,0,0-.4.255l0,0v0h0l-7.081,7.341a1.042,1.042,0,0,0,.4,1.7l12.468,4.447a1.024,1.024,0,0,0,.35.061,1.042,1.042,0,0,0,.35-2.023l-10.948-3.9,5.495-5.7,18.212,6.495-5.5,5.7-3.533-1.26a1.042,1.042,0,1,0-.7,1.962l4.166,1.486a1.042,1.042,0,0,0,1.1-.258l6.333-6.566,6.333,6.566a1.044,1.044,0,0,0,1.1.258l20.366-7.264a1.041,1.041,0,0,0,.4-1.7Zm-20.832,6.78-5.495-5.7,18.212-6.5,5.5,5.7Z" fill="#3c3c3b"/>
      </g>
    </g>
    <g id="Grupo_590" data-name="Grupo 590">
      <g id="Grupo_589" data-name="Grupo 589">
        <path id="Trazado_466" data-name="Trazado 466" d="M2076.182,786.706a1.042,1.042,0,0,0-1.331-.631l-10.565,3.768-19.324-6.892V768.743a1.042,1.042,0,0,0-2.083,0v14.943a1.042,1.042,0,0,0,.691.981l20.366,7.263a1.034,1.034,0,0,0,.7,0l10.915-3.893A1.04,1.04,0,0,0,2076.182,786.706Z" fill="#3c3c3b"/>
      </g>
    </g>
    <g id="Grupo_592" data-name="Grupo 592">
      <g id="Grupo_591" data-name="Grupo 591">
        <path id="Trazado_467" data-name="Trazado 467" d="M2084.652,767.7a1.041,1.041,0,0,0-1.042,1.041v14.208l-4.746,1.693a1.042,1.042,0,1,0,.7,1.962l5.438-1.939a1.042,1.042,0,0,0,.691-.981V768.743A1.041,1.041,0,0,0,2084.652,767.7Z" fill="#3c3c3b"/>
      </g>
    </g>
    <g id="Grupo_594" data-name="Grupo 594">
      <g id="Grupo_593" data-name="Grupo 593">
        <path id="Trazado_468" data-name="Trazado 468" d="M2064.286,767.646a1.042,1.042,0,0,0-1.042,1.042v17.706a1.042,1.042,0,0,0,2.084,0V768.688A1.042,1.042,0,0,0,2064.286,767.646Z" fill="#3c3c3b"/>
      </g>
    </g>
    <g id="Grupo_596" data-name="Grupo 596">
      <g id="Grupo_595" data-name="Grupo 595">
        <path id="Trazado_469" data-name="Trazado 469" d="M2086.587,733.357l-1.975-.4a3.892,3.892,0,0,1-3.048-3.048l-.4-1.975a1.914,1.914,0,0,0-3.752,0l-.4,1.975a3.893,3.893,0,0,1-3.048,3.048l-1.975.4a1.915,1.915,0,0,0,0,3.753l1.975.4a3.893,3.893,0,0,1,3.048,3.048l.4,1.975a1.914,1.914,0,0,0,3.752,0l.4-1.975a3.893,3.893,0,0,1,3.048-3.048l1.975-.4a1.915,1.915,0,0,0,0-3.753Zm-2.389,2.111a5.973,5.973,0,0,0-4.676,4.676l-.235,1.158-.235-1.158a5.972,5.972,0,0,0-4.675-4.676l-1.158-.234,1.158-.235a5.972,5.972,0,0,0,4.675-4.676l.235-1.158.235,1.158A5.973,5.973,0,0,0,2084.2,735l1.158.235Z" fill="#3c3c3b"/>
      </g>
    </g>
    <g id="Grupo_598" data-name="Grupo 598">
      <g id="Grupo_597" data-name="Grupo 597">
        <path id="Trazado_470" data-name="Trazado 470" d="M2065.681,730.462l-2.534-.513a5.292,5.292,0,0,1-4.142-4.142l-.514-2.535a2.161,2.161,0,0,0-4.236,0l-.514,2.534a5.291,5.291,0,0,1-4.142,4.142l-2.534.514a2.162,2.162,0,0,0,0,4.237l2.534.514a5.291,5.291,0,0,1,4.142,4.142l.514,2.534a2.161,2.161,0,0,0,4.236,0l.514-2.534a5.291,5.291,0,0,1,4.142-4.142l2.534-.514a2.162,2.162,0,0,0,0-4.237Zm-.414,2.2-2.534.514a7.373,7.373,0,0,0-5.77,5.769l-.513,2.535c-.01.045-.013.063-.077.063s-.068-.018-.077-.063l-.513-2.535a7.371,7.371,0,0,0-5.77-5.769l-2.534-.514c-.046-.009-.063-.012-.063-.076s.017-.068.063-.077l2.534-.514a7.371,7.371,0,0,0,5.77-5.769l.513-2.535c.01-.045.013-.062.077-.062s.068.017.077.062l.513,2.535a7.371,7.371,0,0,0,5.77,5.769l2.534.514c.046.009.063.013.063.077S2065.313,732.648,2065.267,732.657Z" fill="#3c3c3b"/>
      </g>
    </g>
    <g id="Grupo_600" data-name="Grupo 600">
      <g id="Grupo_599" data-name="Grupo 599">
        <path id="Trazado_471" data-name="Trazado 471" d="M2057.077,754.547c-2.759-6.792-8.937-12.811-9.2-13.064a1.042,1.042,0,0,0-1.448,1.5c.061.059,6.126,5.973,8.716,12.35a1.042,1.042,0,1,0,1.93-.784Z" fill="#3c3c3b"/>
      </g>
    </g>
    <g id="Grupo_602" data-name="Grupo 602">
      <g id="Grupo_601" data-name="Grupo 601">
        <path id="Trazado_472" data-name="Trazado 472" d="M2060.834,741.607a1.042,1.042,0,0,0-1.042,1.042v9.582a1.042,1.042,0,0,0,2.084,0v-9.582A1.042,1.042,0,0,0,2060.834,741.607Z" fill="#3c3c3b"/>
      </g>
    </g>
    <g id="Grupo_604" data-name="Grupo 604">
      <g id="Grupo_603" data-name="Grupo 603">
        <path id="Trazado_473" data-name="Trazado 473" d="M2078.847,745.277a1.04,1.04,0,0,0-1.465.153,36.95,36.95,0,0,0-5.65,9.117,1.042,1.042,0,1,0,1.93.784,36.151,36.151,0,0,1,5.338-8.589A1.042,1.042,0,0,0,2078.847,745.277Z" fill="#3c3c3b"/>
      </g>
    </g>
    <g id="Grupo_606" data-name="Grupo 606">
      <g id="Grupo_605" data-name="Grupo 605">
        <path id="Trazado_474" data-name="Trazado 474" d="M2069.787,738.283a1.04,1.04,0,0,0-1.167.9l-1.678,12.916a1.042,1.042,0,1,0,2.066.268l1.678-12.915A1.042,1.042,0,0,0,2069.787,738.283Z" fill="#3c3c3b"/>
      </g>
    </g>
  </g>
</svg>
