<svg xmlns="http://www.w3.org/2000/svg" width="77.124" height="71.507" viewBox="0 0 77.124 71.507">
  <g id="Grupo_647" data-name="Grupo 647" transform="translate(-1741.876 -722.516)">
    <g id="Grupo_618" data-name="Grupo 618">
      <g id="Grupo_617" data-name="Grupo 617">
        <path id="Trazado_478" data-name="Trazado 478" d="M1764.672,737.756a1.147,1.147,0,0,0-1.146,1.146v2.979a1.146,1.146,0,0,0,2.292,0V738.9A1.146,1.146,0,0,0,1764.672,737.756Z" fill="#3c3c3b"/>
      </g>
    </g>
    <g id="Grupo_620" data-name="Grupo 620">
      <g id="Grupo_619" data-name="Grupo 619">
        <path id="Trazado_479" data-name="Trazado 479" d="M1764.672,745.777a1.147,1.147,0,0,0-1.146,1.146v2.98a1.146,1.146,0,0,0,2.292,0v-2.98A1.146,1.146,0,0,0,1764.672,745.777Z" fill="#3c3c3b"/>
      </g>
    </g>
    <g id="Grupo_622" data-name="Grupo 622">
      <g id="Grupo_621" data-name="Grupo 621">
        <path id="Trazado_480" data-name="Trazado 480" d="M1770.173,743.256h-2.98a1.146,1.146,0,0,0,0,2.292h2.98a1.146,1.146,0,0,0,0-2.292Z" fill="#3c3c3b"/>
      </g>
    </g>
    <g id="Grupo_624" data-name="Grupo 624">
      <g id="Grupo_623" data-name="Grupo 623">
        <path id="Trazado_481" data-name="Trazado 481" d="M1762.151,743.256h-2.979a1.146,1.146,0,0,0,0,2.292h2.979a1.146,1.146,0,1,0,0-2.292Z" fill="#3c3c3b"/>
      </g>
    </g>
    <g id="Grupo_626" data-name="Grupo 626">
      <g id="Grupo_625" data-name="Grupo 625">
        <path id="Trazado_482" data-name="Trazado 482" d="M1749.186,780.73a1.146,1.146,0,0,0-1.146,1.146v2.979a1.146,1.146,0,0,0,2.292,0v-2.979A1.146,1.146,0,0,0,1749.186,780.73Z" fill="#3c3c3b"/>
      </g>
    </g>
    <g id="Grupo_628" data-name="Grupo 628">
      <g id="Grupo_627" data-name="Grupo 627">
        <path id="Trazado_483" data-name="Trazado 483" d="M1749.186,788.752a1.146,1.146,0,0,0-1.146,1.146v2.979a1.146,1.146,0,0,0,2.292,0V789.9A1.146,1.146,0,0,0,1749.186,788.752Z" fill="#3c3c3b"/>
      </g>
    </g>
    <g id="Grupo_630" data-name="Grupo 630">
      <g id="Grupo_629" data-name="Grupo 629">
        <path id="Trazado_484" data-name="Trazado 484" d="M1754.687,786.231h-2.98a1.146,1.146,0,0,0,0,2.292h2.98a1.146,1.146,0,0,0,0-2.292Z" fill="#3c3c3b"/>
      </g>
    </g>
    <g id="Grupo_632" data-name="Grupo 632">
      <g id="Grupo_631" data-name="Grupo 631">
        <path id="Trazado_485" data-name="Trazado 485" d="M1746.665,786.231h-2.98a1.146,1.146,0,1,0,0,2.292h2.98a1.146,1.146,0,0,0,0-2.292Z" fill="#3c3c3b"/>
      </g>
    </g>
    <g id="Grupo_634" data-name="Grupo 634">
      <g id="Grupo_633" data-name="Grupo 633">
        <path id="Trazado_486" data-name="Trazado 486" d="M1781.5,777.929l-2.413-.49a4.884,4.884,0,0,1-3.823-3.823l-.489-2.413a2.213,2.213,0,0,0-4.337,0l-.489,2.413a4.882,4.882,0,0,1-3.823,3.823l-2.413.49a2.212,2.212,0,0,0,0,4.336l2.413.489a4.883,4.883,0,0,1,3.823,3.823l.489,2.413a2.213,2.213,0,0,0,4.337,0l.489-2.413a4.885,4.885,0,0,1,3.823-3.823l2.413-.489a2.212,2.212,0,0,0,0-4.336Zm-2.868,2.579a7.172,7.172,0,0,0-5.614,5.614l-.412,2.028-.411-2.028a7.172,7.172,0,0,0-5.614-5.614l-2.027-.411,2.027-.411a7.172,7.172,0,0,0,5.614-5.614l.412-2.028.411,2.028a7.172,7.172,0,0,0,5.614,5.614l2.027.411Z" fill="#3c3c3b"/>
      </g>
    </g>
    <g id="Grupo_636" data-name="Grupo 636">
      <g id="Grupo_635" data-name="Grupo 635">
        <path id="Trazado_487" data-name="Trazado 487" d="M1765.273,762.52l-2.922-.592a6.157,6.157,0,0,1-4.819-4.819l-.592-2.922a2.437,2.437,0,0,0-4.777,0l-.593,2.922a6.156,6.156,0,0,1-4.818,4.819l-2.923.592a2.438,2.438,0,0,0,0,4.778l2.922.592a6.154,6.154,0,0,1,4.819,4.819l.592,2.922a2.438,2.438,0,0,0,4.778,0l.592-2.922a6.157,6.157,0,0,1,4.819-4.819l2.922-.592a2.438,2.438,0,0,0,0-4.778Zm-.455,2.531-2.923.593a8.443,8.443,0,0,0-6.609,6.609l-.593,2.922c-.011.055-.023.117-.142.117s-.131-.062-.142-.117l-.593-2.922a8.443,8.443,0,0,0-6.609-6.609l-2.922-.593c-.055-.011-.117-.023-.117-.142s.062-.131.117-.142l2.922-.593a8.443,8.443,0,0,0,6.609-6.609l.593-2.923c.011-.054.023-.116.142-.116s.131.062.142.116l.593,2.923a8.443,8.443,0,0,0,6.609,6.609l2.922.593c.055.011.117.023.117.142S1764.872,765.04,1764.818,765.051Z" fill="#3c3c3b"/>
      </g>
    </g>
    <g id="Grupo_638" data-name="Grupo 638">
      <g id="Grupo_637" data-name="Grupo 637">
        <path id="Trazado_488" data-name="Trazado 488" d="M1817.973,733.992a1.146,1.146,0,0,0-1.259,1.02,17.9,17.9,0,0,1-5.13,10.764l-14.635,14.635a1.892,1.892,0,0,1-2.676-2.676l9.4-9.4a1.146,1.146,0,0,0-1.621-1.62L1788.3,760.465a1.892,1.892,0,0,1-2.676-2.676l12.855-12.854a1.146,1.146,0,0,0-1.621-1.621l-16.2,16.2a1.892,1.892,0,0,1-2.676-2.676l2.7-2.7.005-.005,14.2-14.2a1.146,1.146,0,0,0-1.62-1.62l-14.2,14.2a1.892,1.892,0,0,1-2.676-2.676l17.725-17.725a12.276,12.276,0,0,0,15.323,5.807,1.146,1.146,0,0,0-.826-2.138,10,10,0,0,1-12.912-5.72,1.928,1.928,0,0,0-1.317-.983l-8.422-.013a2.13,2.13,0,0,1,0-4.261h0l20.106.019h0a1.146,1.146,0,0,0,0-2.292l-20.106-.019h0a4.423,4.423,0,0,0-.007,8.845l5.661.009-16.849,16.85a4.184,4.184,0,0,0,1.658,6.935l-.067.067a4.184,4.184,0,1,0,5.917,5.917l.71-.709a4.188,4.188,0,0,0,6.937,1.656l1.71-1.71a4.188,4.188,0,0,0,6.937,1.656L1813.2,747.4a20.2,20.2,0,0,0,5.789-12.146A1.145,1.145,0,0,0,1817.973,733.992Z" fill="#3c3c3b"/>
      </g>
    </g>
    <g id="Grupo_640" data-name="Grupo 640">
      <g id="Grupo_639" data-name="Grupo 639">
        <path id="Trazado_489" data-name="Trazado 489" d="M1779.8,769.986a1.146,1.146,0,1,0,1.858,1.057A1.158,1.158,0,0,0,1779.8,769.986Z" fill="#3c3c3b"/>
      </g>
    </g>
    <g id="Grupo_642" data-name="Grupo 642">
      <g id="Grupo_641" data-name="Grupo 641">
        <path id="Trazado_490" data-name="Trazado 490" d="M1762.784,789.26a1.146,1.146,0,1,0-.405,1.378A1.157,1.157,0,0,0,1762.784,789.26Z" fill="#3c3c3b"/>
      </g>
    </g>
    <g id="Grupo_644" data-name="Grupo 644">
      <g id="Grupo_643" data-name="Grupo 643">
        <path id="Trazado_491" data-name="Trazado 491" d="M1771.02,757.8a1.146,1.146,0,1,0,.422,1.391A1.155,1.155,0,0,0,1771.02,757.8Z" fill="#3c3c3b"/>
      </g>
    </g>
    <g id="Grupo_646" data-name="Grupo 646">
      <g id="Grupo_645" data-name="Grupo 645">
        <path id="Trazado_492" data-name="Trazado 492" d="M1763.366,770.7a1.146,1.146,0,1,0-.194,1.495A1.157,1.157,0,0,0,1763.366,770.7Z" fill="#3c3c3b"/>
      </g>
    </g>
  </g>
</svg>
