<svg xmlns="http://www.w3.org/2000/svg" viewBox="0 0 50.36 60.54"><defs><style>.cls-1{fill:#3c3c3b;}</style></defs><title>icono-telefono</title><g id="Capa_2" data-name="Capa 2"><g id="Capa_1-2" data-name="Capa 1"><path class="cls-1" d="M21.37,49.71H1a1,1,0,1,1,0-1.94H21.37a1,1,0,0,1,0,1.94Z"/><path class="cls-1" d="M20.73,6.4H14.36a1,1,0,0,1,0-1.94h6.37a1,1,0,0,1,0,1.94Z"/><path class="cls-1" d="M17.54,57.36a3.52,3.52,0,1,1,3.52-3.52A3.53,3.53,0,0,1,17.54,57.36Zm0-5.1a1.58,1.58,0,1,0,1.58,1.58A1.57,1.57,0,0,0,17.54,52.26Z"/><path class="cls-1" d="M27.73,60.54H7.34A7.34,7.34,0,0,1,0,53.2V7.34A7.34,7.34,0,0,1,7.34,0H27.73a7.35,7.35,0,0,1,7.34,7.33V20.18a1,1,0,0,1-1.94,0V7.34a5.42,5.42,0,0,0-5.4-5.4H7.35a5.41,5.41,0,0,0-5.41,5.4V53.2a5.4,5.4,0,0,0,5.4,5.4H27.73a5.39,5.39,0,0,0,4.78-2.88,1,1,0,0,1,1.71.91A7.32,7.32,0,0,1,27.73,60.54Z"/><path class="cls-1" d="M34.1,10.22H1A1,1,0,1,1,1,8.28H34.1a1,1,0,0,1,0,1.94Z"/><path class="cls-1" d="M48.26,52.9H27.59a2.11,2.11,0,0,1-2.1-2.1V35.23a2.11,2.11,0,0,1,2.1-2.11H48.26a2.11,2.11,0,0,1,2.1,2.11V50.8A2.11,2.11,0,0,1,48.26,52.9ZM27.59,35.06a.17.17,0,0,0-.16.17V50.8a.16.16,0,0,0,.16.16H48.26a.17.17,0,0,0,.16-.16V35.23a.17.17,0,0,0-.16-.17Z"/><path class="cls-1" d="M46.52,35.06H29.31V31.54A8.59,8.59,0,0,1,36.5,23h0a9.33,9.33,0,0,1,1.4-.11h0a8.62,8.62,0,0,1,8.59,8.61ZM31.25,33.12H44.58V31.54a6.69,6.69,0,0,0-6.66-6.67h0a6.66,6.66,0,0,0-6.66,6.67Z"/><path class="cls-1" d="M37.92,45.25a3.52,3.52,0,1,1,3.52-3.51A3.51,3.51,0,0,1,37.92,45.25Zm0-5.09a1.58,1.58,0,1,0,1.58,1.58A1.58,1.58,0,0,0,37.92,40.16Z"/><path class="cls-1" d="M37.92,47.8a1,1,0,0,1-1-1V44.28a1,1,0,0,1,1.94,0v2.55A1,1,0,0,1,37.92,47.8Z"/><path class="cls-1" d="M19.65,31a1.6,1.6,0,0,0-.47-1.22A4.28,4.28,0,0,0,17.59,29c-.66-.22-1.31-.48-1.94-.76a6.12,6.12,0,0,1-1.4-.88,3.34,3.34,0,0,1-.91-1.13A3.59,3.59,0,0,1,13,24.62,3.36,3.36,0,0,1,14.15,22a5,5,0,0,1,3-1.18v-2h1.65v2a4.43,4.43,0,0,1,2.86,1.39,4.29,4.29,0,0,1,1,2.95h-3a2.42,2.42,0,0,0-.51-1.7,1.76,1.76,0,0,0-1.37-.56,1.8,1.8,0,0,0-1.31.43A1.59,1.59,0,0,0,16,24.61a1.48,1.48,0,0,0,.45,1.13,5.12,5.12,0,0,0,1.7.89,18.93,18.93,0,0,1,2,.85,6.25,6.25,0,0,1,1.34.89A3.29,3.29,0,0,1,22.64,31a3.31,3.31,0,0,1-1.09,2.59,5,5,0,0,1-3,1.21v1.86H16.88V34.8a5.2,5.2,0,0,1-3.27-1.37,4.15,4.15,0,0,1-1.17-3.08h3a2.35,2.35,0,0,0,.57,1.7,2.26,2.26,0,0,0,1.69.56,2.17,2.17,0,0,0,1.44-.43A1.47,1.47,0,0,0,19.65,31Z"/></g></g></svg>