<svg xmlns="http://www.w3.org/2000/svg" width="106.424" height="106.424" viewBox="0 0 106.424 106.424">
  <g id="Grupo_1027" data-name="Grupo 1027" transform="translate(-1638.992 -1842.587)">
    <circle id="Elipse_146" data-name="Elipse 146" cx="53.212" cy="53.212" r="53.212" transform="translate(1638.992 1842.587)" fill="#4c266d"/>
    <g id="Grupo_790" data-name="Grupo 790">
      <path id="Trazado_687" data-name="Trazado 687" d="M1696.982,1887.649a10.275,10.275,0,1,0,10.275,10.275,10.286,10.286,0,0,0-10.275-10.275Zm0,19.109a8.834,8.834,0,1,1,8.833-8.834A8.844,8.844,0,0,1,1696.982,1906.758Z" fill="#fff"/>
      <path id="Trazado_688" data-name="Trazado 688" d="M1696.982,1894.018a3.906,3.906,0,1,0,3.9,3.906,3.911,3.911,0,0,0-3.9-3.906Zm0,6.37a2.464,2.464,0,1,1,2.463-2.464A2.467,2.467,0,0,1,1696.982,1900.388Z" fill="#fff"/>
      <path id="Trazado_689" data-name="Trazado 689" d="M1712.906,1884.464h-2.621a2.454,2.454,0,0,1-2.288-1.549l-1.583-3.958a3.887,3.887,0,0,0-3.627-2.456h-13.2a3.888,3.888,0,0,0-3.627,2.456l-1.583,3.958a2.452,2.452,0,0,1-2.288,1.549h-3.492v-1.695a1.492,1.492,0,0,0-1.49-1.49h-3.24a1.491,1.491,0,0,0-1.489,1.49v1.695h-.872a3.91,3.91,0,0,0-3.906,3.906v22.294a3.91,3.91,0,0,0,3.906,3.906h14.792a.721.721,0,1,0,0-1.442h-1.331v-1.7a1.492,1.492,0,0,0-1.49-1.49h-1.7v-17.668h2.987a13.461,13.461,0,1,0,25.478,7.963h1.071a2.314,2.314,0,0,0,0-4.627h-1.071a13.381,13.381,0,0,0-1.045-3.336h6.172v4.568a.721.721,0,0,0,1.442,0v-8.473a3.91,3.91,0,0,0-3.906-3.906Zm-39.091-1.695a.048.048,0,0,1,.048-.048h3.24a.048.048,0,0,1,.048.048v1.695h-3.336Zm-2.313,3.137h8.834v4.928h-11.3v-2.464A2.466,2.466,0,0,1,1671.5,1885.906Zm12.019,25.527v1.7h-4.928v-1.7a.047.047,0,0,1,.048-.048h4.832A.048.048,0,0,1,1683.521,1911.433Zm-3.185-1.49h-1.7a1.491,1.491,0,0,0-1.49,1.49v1.7H1671.5a2.466,2.466,0,0,1-2.464-2.464v-7.241h2.464a.721.721,0,1,0,0-1.442h-2.464v-1.743h2.464a.721.721,0,1,0,0-1.442h-2.464v-1.743h2.464a.721.721,0,1,0,0-1.442h-2.464v-3.336h11.3Zm16.646,0A12.018,12.018,0,1,1,1709,1897.924,12.032,12.032,0,0,1,1696.982,1909.943Zm14.332-12.89a.872.872,0,0,1,0,1.743h-.9q.029-.432.029-.872t-.029-.871Zm-2.9-6.22a13.452,13.452,0,0,0-22.873,0h-3.767v-4.928h.307a3.887,3.887,0,0,0,3.627-2.455l1.583-3.958a2.453,2.453,0,0,1,2.288-1.549h13.2a2.451,2.451,0,0,1,2.288,1.549l1.584,3.958a3.885,3.885,0,0,0,3.626,2.455h2.621a2.467,2.467,0,0,1,2.464,2.464v2.464Z" fill="#fff"/>
      <path id="Trazado_690" data-name="Trazado 690" d="M1716.091,1899.006a.721.721,0,0,0-.721.721v10.937a2.466,2.466,0,0,1-2.464,2.464h-23.728a.721.721,0,0,0,0,1.442h23.728a3.91,3.91,0,0,0,3.906-3.906v-10.937a.721.721,0,0,0-.721-.721Z" fill="#fff"/>
      <path id="Trazado_691" data-name="Trazado 691" d="M1701.759,1881.279h-11.147a.721.721,0,1,0,0,1.442h11.147a.721.721,0,0,0,0-1.442Z" fill="#fff"/>
      <path id="Trazado_692" data-name="Trazado 692" d="M1712.906,1911.385a.721.721,0,0,0,.721-.721v-3.185a.721.721,0,0,0-.721-.721h-3.185a.721.721,0,0,0-.721.721v3.185a.721.721,0,0,0,.721.721Zm-2.464-3.185h1.743v1.743h-1.743Z" fill="#fff"/>
    </g>
  </g>
</svg>
