<svg xmlns="http://www.w3.org/2000/svg" width="106.424" height="106.424" viewBox="0 0 106.424 106.424">
  <g id="Grupo_1032" data-name="Grupo 1032" transform="translate(-2490.387 -1842.587)">
    <circle id="Elipse_153" data-name="Elipse 153" cx="53.212" cy="53.212" r="53.212" transform="translate(2490.387 1842.587)" fill="#10dcdc"/>
    <g id="Grupo_818" data-name="Grupo 818">
      <g id="Grupo_807" data-name="Grupo 807">
        <g id="Grupo_806" data-name="Grupo 806">
          <path id="Trazado_700" data-name="Trazado 700" d="M2575.557,1903.513a59.559,59.559,0,0,0-1.75-11.534,44.226,44.226,0,0,0-3.579-9.7c-5.568-9.784-11.614-8.273-18.853-6.364a51.8,51.8,0,0,1-7.318,1.432h-.795a51.8,51.8,0,0,1-7.318-1.432c-7.239-1.83-13.284-3.42-18.853,6.443a40.587,40.587,0,0,0-3.579,9.7,59.559,59.559,0,0,0-1.75,11.534c-.159,4.057.239,7,1.114,9.068a6.026,6.026,0,0,0,3.818,3.579,7.778,7.778,0,0,0,5.091-.556c3.1-1.273,6.681-3.978,10.181-7.239,2.466-2.386,7.08-3.58,11.694-3.58s9.227,1.194,11.693,3.58c3.5,3.261,7.079,5.966,10.182,7.239a8.315,8.315,0,0,0,5.09.556,5.942,5.942,0,0,0,3.819-3.659C2575.319,1910.593,2575.716,1907.65,2575.557,1903.513Zm-3.818,7.955a3.154,3.154,0,0,1-1.909,1.988,5.49,5.49,0,0,1-3.261-.4c-2.784-1.114-6.046-3.58-9.228-6.6-3.022-3.022-8.352-4.534-13.681-4.534s-10.659,1.512-13.762,4.375c-3.261,3.023-6.522,5.568-9.227,6.6a4.936,4.936,0,0,1-3.261.4,3.152,3.152,0,0,1-1.909-1.988c-.637-1.512-.955-3.978-.8-7.637a54.823,54.823,0,0,1,1.671-10.977,37.987,37.987,0,0,1,3.34-8.989c4.375-7.875,9.466-6.6,15.512-5.011a46.627,46.627,0,0,0,7.795,1.511h1.193a46.048,46.048,0,0,0,7.875-1.511c6.046-1.511,11.137-2.864,15.512,5.011a36.7,36.7,0,0,1,3.341,8.989,60.189,60.189,0,0,1,1.67,10.977C2572.773,1907.331,2572.455,1909.8,2571.739,1911.468Z" fill="#fff" stroke="#10dcdc" stroke-miterlimit="10" stroke-width="1"/>
        </g>
      </g>
      <g id="Grupo_809" data-name="Grupo 809">
        <g id="Grupo_808" data-name="Grupo 808">
          <path id="Trazado_701" data-name="Trazado 701" d="M2536.341,1888a4.829,4.829,0,0,0-2.863-1.352,4.53,4.53,0,0,0-1.273-2.785l-.079-.079a4.506,4.506,0,0,0-3.262-1.352,4.692,4.692,0,0,0-3.261,1.352,4.62,4.62,0,0,0-1.352,2.864,4.733,4.733,0,0,0-2.864,1.272l-.08.08a4.5,4.5,0,0,0-1.352,3.261,4.7,4.7,0,0,0,1.352,3.262,4.44,4.44,0,0,0,2.944,1.352,4.236,4.236,0,0,0,1.352,2.863,4.5,4.5,0,0,0,3.261,1.353,4.7,4.7,0,0,0,3.262-1.353,4.84,4.84,0,0,0,1.352-2.863,4.247,4.247,0,0,0,2.863-1.352,4.507,4.507,0,0,0,1.353-3.262A4.693,4.693,0,0,0,2536.341,1888Zm-1.988,4.454a1.616,1.616,0,0,1-1.193.478h-1.114a1.51,1.51,0,0,0-1.511,1.511v1.034a1.671,1.671,0,1,1-3.341,0v-1.114a1.511,1.511,0,0,0-1.512-1.511h-1.113a1.631,1.631,0,0,1-1.193-2.784l.079-.08a1.9,1.9,0,0,1,1.114-.4h1.113a1.511,1.511,0,0,0,1.512-1.512v-1.113a1.686,1.686,0,0,1,2.863-1.193l.08.079a1.9,1.9,0,0,1,.4,1.114v1.113a1.51,1.51,0,0,0,1.511,1.512h1.114a1.687,1.687,0,0,1,1.193,2.863Z" fill="#fff" stroke="#10dcdc" stroke-miterlimit="10" stroke-width="1"/>
        </g>
      </g>
      <g id="Grupo_811" data-name="Grupo 811">
        <g id="Grupo_810" data-name="Grupo 810">
          <circle id="Elipse_154" data-name="Elipse 154" cx="2.784" cy="2.784" r="2.784" transform="translate(2554.716 1882.831)" fill="#fff"/>
        </g>
      </g>
      <g id="Grupo_813" data-name="Grupo 813">
        <g id="Grupo_812" data-name="Grupo 812">
          <circle id="Elipse_155" data-name="Elipse 155" cx="2.784" cy="2.784" r="2.784" transform="translate(2554.716 1894.127)" fill="#fff"/>
        </g>
      </g>
      <g id="Grupo_815" data-name="Grupo 815">
        <g id="Grupo_814" data-name="Grupo 814">
          <circle id="Elipse_156" data-name="Elipse 156" cx="2.784" cy="2.784" r="2.784" transform="translate(2549.069 1888.479)" fill="#fff"/>
        </g>
      </g>
      <g id="Grupo_817" data-name="Grupo 817">
        <g id="Grupo_816" data-name="Grupo 816">
          <circle id="Elipse_157" data-name="Elipse 157" cx="2.784" cy="2.784" r="2.784" transform="translate(2560.364 1888.479)" fill="#fff"/>
        </g>
      </g>
    </g>
  </g>
</svg>
