<svg xmlns="http://www.w3.org/2000/svg" width="106.424" height="106.424" viewBox="0 0 106.424 106.424">
  <g id="Grupo_1028" data-name="Grupo 1028" transform="translate(-1803.415 -1842.587)">
    <circle id="Elipse_147" data-name="Elipse 147" cx="53.212" cy="53.212" r="53.212" transform="translate(1803.415 1842.587)" fill="#e4417c"/>
    <g id="Grupo_795" data-name="Grupo 795">
      <g id="Grupo_794" data-name="Grupo 794">
        <g id="Grupo_793" data-name="Grupo 793">
          <g id="Grupo_792" data-name="Grupo 792">
            <path id="Trazado_693" data-name="Trazado 693" d="M1869.313,1872.47l-1.133,1.7a1.6,1.6,0,0,1-2.557.137l-2.333-2.8a4.008,4.008,0,0,0-3.087-1.446h-6.631a4,4,0,0,0-3.086,1.446l-2.335,2.8a1.6,1.6,0,0,1-2.556-.137l-1.133-1.7h-2.84v12.855h30.531V1872.47Zm1.233,11.248h-27.317v-9.641h.373l.656.983a3.2,3.2,0,0,0,5.128.273l2.334-2.8a2.409,2.409,0,0,1,1.852-.867h6.631a2.4,2.4,0,0,1,1.852.868l2.334,2.8a3.2,3.2,0,0,0,5.128-.274l.656-.983h.373Z" fill="#fff"/>
            <path id="Trazado_694" data-name="Trazado 694" d="M1868.939,1890.146h-1.606v-3.214h-1.607v3.214h-1.607v-3.214h-1.607v3.214h-1.607v-3.214H1859.3v3.214h-1.607v-3.214h-1.607v3.214h-1.607v-3.214h-1.607v3.214h-1.607v-3.214h-1.607v3.214h-1.607v-3.214h-1.606v3.214h-1.607v-3.214h-1.607v19.473l1.607,3.214v5.434h24.1v-5.434l1.607-3.214v-19.473h-1.607Zm-1.606,23.3h-20.89v-3.214h20.89Zm.306-4.821h-21.5l-.8-1.607h23.111Zm1.3-3.213h-24.1v-13.659h24.1Z" fill="#fff"/>
            <path id="Trazado_695" data-name="Trazado 695" d="M1864.922,1918.267h-16.069v-1.607h-1.607v3.214h19.283v-3.214h-1.607Z" fill="#fff"/>
            <path id="Trazado_696" data-name="Trazado 696" d="M1865.726,1897.377h-17.677v6.428h17.677Zm-1.607,4.821h-14.463v-3.214h9.642v1.607h1.607v-1.607h3.214Z" fill="#fff"/>
          </g>
        </g>
      </g>
    </g>
  </g>
</svg>
