<svg xmlns="http://www.w3.org/2000/svg" width="106.424" height="106.424" viewBox="0 0 106.424 106.424">
  <g id="Grupo_1031" data-name="Grupo 1031" transform="translate(-2322.298 -1842.587)">
    <circle id="Elipse_152" data-name="Elipse 152" cx="53.212" cy="53.212" r="53.212" transform="translate(2322.298 1842.587)" fill="#b0b0b0"/>
    <path id="Trazado_699" data-name="Trazado 699" d="M2397.666,1913.24h2.268a.756.756,0,0,0,.756-.756v-4.535a.756.756,0,0,0-.756-.756h-2.268a.756.756,0,0,0-.756-.756h-7.558a.756.756,0,0,0-.756.756,2.265,2.265,0,0,0-1.689.756h-28.546v-10.582h39.3a3.028,3.028,0,0,0,3.024-3.024v-13.6a3.028,3.028,0,0,0-3.024-3.024h-30.058a2.261,2.261,0,0,0-1.688-.756.757.757,0,0,0-.756-.756H2357.6a.757.757,0,0,0-.756.756h-2.267a.756.756,0,0,0-.756.756v4.535a.756.756,0,0,0,.756.756h2.267a.756.756,0,0,0,.756.756h7.559a.756.756,0,0,0,.756-.756,2.261,2.261,0,0,0,1.688-.756h28.547v10.583h-39.306a3.026,3.026,0,0,0-3.023,3.023v13.606a3.026,3.026,0,0,0,3.023,3.023h30.058a2.265,2.265,0,0,0,1.689.756.756.756,0,0,0,.756.756h7.558A.756.756,0,0,0,2397.666,1913.24Zm1.512-4.535v3.023h-1.512V1908.7Zm-32.5-29.479v1.512a.757.757,0,0,1-.756.755v-3.023A.758.758,0,0,1,2366.676,1879.226Zm-11.338,2.267v-3.023h1.511v3.023Zm3.023.756v-4.535h6.047v4.535Zm-1.512,28.723a1.513,1.513,0,0,1-1.511-1.511v-13.606a1.514,1.514,0,0,1,1.511-1.512h39.306a1.513,1.513,0,0,0,1.511-1.511v-10.583a1.513,1.513,0,0,0-1.511-1.511h-27.968v-1.512h29.479a1.513,1.513,0,0,1,1.512,1.512v13.6a1.513,1.513,0,0,1-1.512,1.512h-39.3a1.514,1.514,0,0,0-1.512,1.512v10.582a1.515,1.515,0,0,0,1.512,1.512h27.967v1.511Zm30.991,0v-1.511a.757.757,0,0,1,.756-.756v3.023A.757.757,0,0,1,2387.84,1910.972Zm2.268,1.512v-4.535h6.047v4.535Z" fill="#fff"/>
  </g>
</svg>
