<svg xmlns="http://www.w3.org/2000/svg" width="83.088" height="67.204" viewBox="0 0 83.088 67.204">
  <g id="Grupo_230" data-name="Grupo 230" transform="translate(-3382.013 -5278.437)">
    <g id="Grupo_227" data-name="Grupo 227">
      <path id="Trazado_253" data-name="Trazado 253" d="M3463.12,5284.793h-57.332a1.98,1.98,0,0,0,0,3.961h57.332a1.98,1.98,0,1,0,0-3.961Z" fill="#1d1d1b"/>
      <path id="Trazado_254" data-name="Trazado 254" d="M3390.46,5295.332a8.448,8.448,0,1,1,8.447-8.447A8.457,8.457,0,0,1,3390.46,5295.332Zm0-13.364a4.917,4.917,0,1,0,4.917,4.917A4.922,4.922,0,0,0,3390.46,5281.968Z" fill="#1d1d1b"/>
    </g>
    <g id="Grupo_228" data-name="Grupo 228">
      <path id="Trazado_255" data-name="Trazado 255" d="M3463.12,5310.169h-57.332a1.98,1.98,0,0,0,0,3.961h57.332a1.98,1.98,0,1,0,0-3.961Z" fill="#1d1d1b"/>
      <path id="Trazado_256" data-name="Trazado 256" d="M3390.46,5320.707a8.447,8.447,0,1,1,8.447-8.447A8.456,8.456,0,0,1,3390.46,5320.707Zm0-13.364a4.917,4.917,0,1,0,4.917,4.917A4.923,4.923,0,0,0,3390.46,5307.343Z" fill="#1d1d1b"/>
    </g>
    <g id="Grupo_229" data-name="Grupo 229">
      <path id="Trazado_257" data-name="Trazado 257" d="M3463.12,5335.1h-57.332a1.98,1.98,0,0,0,0,3.961h57.332a1.98,1.98,0,1,0,0-3.961Z" fill="#1d1d1b"/>
      <path id="Trazado_258" data-name="Trazado 258" d="M3390.46,5345.641a8.447,8.447,0,1,1,8.447-8.447A8.456,8.456,0,0,1,3390.46,5345.641Zm0-13.364a4.917,4.917,0,1,0,4.917,4.917A4.923,4.923,0,0,0,3390.46,5332.277Z" fill="#1d1d1b"/>
    </g>
  </g>
</svg>
