<svg xmlns="http://www.w3.org/2000/svg" width="121.106" height="36.597" viewBox="0 0 121.106 36.597">
  <g id="Grupo_943" data-name="Grupo 943" transform="translate(-95.553 -3101.855)">
    <path id="Trazado_793" data-name="Trazado 793" d="M102.724,3135.7a.822.822,0,0,1-.885-.7l-6.247-22.656c-.14-.513.093-.886.7-.886h5.594a.747.747,0,0,1,.839.7l1.679,7.691c.419,2.331,1.072,6.154,1.445,8.438h.14c.419-2.517,1.118-5.967,1.631-8.158l1.772-7.645a.822.822,0,0,1,.885-.7h5.781a.778.778,0,0,1,.839.7l1.818,7.645c.513,2.191,1.166,5.641,1.632,8.158h.14c.373-2.284,1.025-6.107,1.445-8.438l1.631-7.691a.79.79,0,0,1,.886-.7h5.594c.56,0,.839.373.653.886L124.5,3135a.854.854,0,0,1-.886.7h-6.06a.877.877,0,0,1-.933-.745l-2.051-8.438c-.466-1.912-1.025-4.522-1.352-6.06h-.14c-.326,1.538-.885,4.148-1.305,6.06l-2.1,8.438a.859.859,0,0,1-.885.745Z" fill="#fff"/>
    <path id="Trazado_794" data-name="Trazado 794" d="M136.989,3101.855a4.054,4.054,0,0,1,4.2,4.149,4.219,4.219,0,0,1-8.437,0A4.093,4.093,0,0,1,136.989,3101.855Zm2.284,10.722a.749.749,0,0,1,.793.839l.466,13.239v8.252c0,.559-.28.839-.793.839h-5.5a.762.762,0,0,1-.839-.839v-8.252l.466-13.239a.784.784,0,0,1,.84-.839Z" fill="#fff"/>
    <path id="Trazado_795" data-name="Trazado 795" d="M156.056,3110.8c5.967,0,10.069,4.009,10.069,10.3v4.615c0,6.667-4.522,10.582-11.048,10.582a31.321,31.321,0,0,1-9.836-1.678.951.951,0,0,1-.653-.979V3103.2a.742.742,0,0,1,.839-.839h5.5c.513,0,.792.28.792.839v8.391A13.573,13.573,0,0,1,156.056,3110.8Zm2.844,15.057v-4.848c0-2.7-1.4-4.009-3.916-4.009a7.032,7.032,0,0,0-3.264.792v11.655a9.709,9.709,0,0,0,3.217.513C157.454,3129.962,158.9,3128.749,158.9,3125.859Z" fill="#fff"/>
    <path id="Trazado_796" data-name="Trazado 796" d="M178.06,3136.3c-5.5,0-8.624-3.356-8.624-9.043V3103.2a.741.741,0,0,1,.839-.839h5.5c.513,0,.793.28.793.839v23.169c0,2.331.932,3.4,2.75,3.4.467,0,.98,0,1.446-.047a.726.726,0,0,1,.885.793v4.662c0,.419-.186.792-.512.839A17.351,17.351,0,0,1,178.06,3136.3Z" fill="#fff"/>
    <path id="Trazado_797" data-name="Trazado 797" d="M192.744,3136.3c-4.988,0-8.9-3.4-8.9-10.116v-5.034c0-6.713,4.8-10.349,11.142-10.349a33.774,33.774,0,0,1,9.7,1.725.864.864,0,0,1,.653.932v21.4c0,.56-.28.839-.792.839h-3.87a.9.9,0,0,1-.932-.7l-.373-1.538A8.511,8.511,0,0,1,192.744,3136.3Zm1.632-6.246a5.3,5.3,0,0,0,3.823-1.632v-10.908a14.276,14.276,0,0,0-3.264-.373,3.524,3.524,0,0,0-3.822,3.822v5.408C191.113,3128.936,192.092,3130.055,194.376,3130.055Z" fill="#fff"/>
    <path id="Trazado_798" data-name="Trazado 798" d="M212.417,3138.452a4.055,4.055,0,0,1-4.2-4.149,4.22,4.22,0,0,1,8.438,0A4.093,4.093,0,0,1,212.417,3138.452Zm-2.284-10.722a.748.748,0,0,1-.793-.839l-.466-13.239V3105.4c0-.559.28-.839.792-.839h5.5a.762.762,0,0,1,.84.839v8.252l-.467,13.239a.783.783,0,0,1-.839.839Z" fill="#fff"/>
  </g>
</svg>
