<svg xmlns="http://www.w3.org/2000/svg" width="129.71" height="39.198" viewBox="0 0 129.71 39.198">
  <g id="Grupo_905" data-name="Grupo 905" transform="translate(-62.507 -29)">
    <path id="Trazado_755" data-name="Trazado 755" d="M70.188,65.245a.882.882,0,0,1-.949-.748l-6.69-24.266c-.15-.55.1-.949.749-.949h5.991a.8.8,0,0,1,.9.749l1.8,8.238c.45,2.5,1.149,6.591,1.548,9.038h.15c.449-2.7,1.2-6.391,1.747-8.738l1.9-8.189a.881.881,0,0,1,.948-.748h6.192a.832.832,0,0,1,.9.748l1.948,8.189c.549,2.347,1.248,6.041,1.747,8.738h.15c.4-2.447,1.1-6.541,1.548-9.038l1.747-8.238a.845.845,0,0,1,.949-.749h5.992c.6,0,.9.4.7.949L93.5,64.5a.914.914,0,0,1-.949.748H86.065a.938.938,0,0,1-1-.8l-2.2-9.038c-.5-2.047-1.1-4.843-1.448-6.491h-.15c-.349,1.648-.948,4.444-1.4,6.491l-2.247,9.038a.92.92,0,0,1-.948.8Z" fill="#e8427d"/>
    <path id="Trazado_756" data-name="Trazado 756" d="M106.887,29a4.343,4.343,0,0,1,4.493,4.444,4.519,4.519,0,0,1-9.037,0A4.385,4.385,0,0,1,106.887,29Zm2.446,11.484a.8.8,0,0,1,.849.9l.5,14.18V64.4c0,.6-.3.9-.848.9h-5.892a.815.815,0,0,1-.9-.9V55.563l.5-14.18a.84.84,0,0,1,.9-.9Z" fill="#e8427d"/>
    <path id="Trazado_757" data-name="Trazado 757" d="M127.308,38.583c6.391,0,10.785,4.294,10.785,11.034v4.944c0,7.139-4.843,11.334-11.833,11.334a33.538,33.538,0,0,1-10.535-1.8,1.018,1.018,0,0,1-.7-1.048v-32.6a.793.793,0,0,1,.9-.9h5.892c.549,0,.849.3.849.9v8.988A14.5,14.5,0,0,1,127.308,38.583Zm3.046,16.127V49.518c0-2.9-1.5-4.294-4.194-4.294a7.529,7.529,0,0,0-3.5.848V58.555a10.4,10.4,0,0,0,3.445.549C128.806,59.1,130.354,57.806,130.354,54.71Z" fill="#e8427d"/>
    <path id="Trazado_758" data-name="Trazado 758" d="M150.876,65.895c-5.892,0-9.237-3.595-9.237-9.687V30.444a.793.793,0,0,1,.9-.9h5.892c.549,0,.849.3.849.9V55.26c0,2.5,1,3.644,2.946,3.644.5,0,1.048,0,1.548-.05a.777.777,0,0,1,.948.849V64.7c0,.45-.2.849-.549.9A18.561,18.561,0,0,1,150.876,65.895Z" fill="#e8427d"/>
    <path id="Trazado_759" data-name="Trazado 759" d="M166.6,65.895c-5.342,0-9.536-3.645-9.536-10.835V49.667c0-7.189,5.143-11.084,11.933-11.084a36.2,36.2,0,0,1,10.385,1.847.927.927,0,0,1,.7,1V64.347c0,.6-.3.9-.848.9h-4.144a.966.966,0,0,1-1-.748l-.4-1.648A9.114,9.114,0,0,1,166.6,65.895Zm1.748-6.691a5.669,5.669,0,0,0,4.094-1.748V45.773a15.246,15.246,0,0,0-3.5-.4,3.776,3.776,0,0,0-4.094,4.095V55.26C164.856,58.006,165.9,59.2,168.351,59.2Z" fill="#e8427d"/>
    <path id="Trazado_760" data-name="Trazado 760" d="M187.674,68.2a4.342,4.342,0,0,1-4.494-4.443,4.519,4.519,0,0,1,9.037,0A4.384,4.384,0,0,1,187.674,68.2Zm-2.447-11.484a.8.8,0,0,1-.849-.9l-.5-14.18V32.8c0-.6.3-.9.849-.9h5.892a.815.815,0,0,1,.9.9v8.838l-.5,14.18a.838.838,0,0,1-.9.9Z" fill="#e8427d"/>
  </g>
</svg>
